<?xml version="1.0" encoding="utf-8"?>
<!-- Generator: Adobe Illustrator 19.2.1, SVG Export Plug-In . SVG Version: 6.00 Build 0)  -->
<svg version="1.1" id="Ebene_1" xmlns="http://www.w3.org/2000/svg" xmlns:xlink="http://www.w3.org/1999/xlink" x="0px" y="0px"
	 viewBox="0 0 320 320" style="enable-background:new 0 0 320 320;" xml:space="preserve">
<style type="text/css">
	.st0{fill:#5FBCA5;}
</style>
<g>
	<path class="st0" d="M315.7,134.8c1.4,0.5,2.4,1.8,2.1,3c-0.9,4.7-9.2,3.3-6.6-1.6C312,134.6,313.7,134,315.7,134.8z"/>
	<path class="st0" d="M293.8,139.1c3.1-0.5,5.7,2,8.3,3.8c2,1.4,4.8,3.1,6,5.2c1.6,2.7,3.5,7.5,2.5,10.2c-0.5,1.4-2.4,2.8-2.9,3.9
		c-1.3,3.1,1,5.8,1.5,9.3c0.3,2-0.9,4-1,5.6c-0.1,1.8,0.6,3.5-1.3,3.8c-3.7,0.6-3.4-3.9-4-6s-2.4-4.9-4.2-5.9
		c-1.3-0.8-4.6-1-4.8-2.7c-0.2-1.9,4.2-2.5,5.4-2.8c4.2-0.9,6.8-2.1,5.6-6c-0.7-2.4-3.8-6.4-5.6-8.1c-1.7-1.6-5-3-6.5-4.2
		C291.5,143.9,289.1,139.8,293.8,139.1z"/>
	<path class="st0" d="M308.2,197c1.6-0.4,3.9,0.4,4.2,2.5c0.6,3.3-2.4,5.5-3.4,7.8c-1.2,2.6-1.8,6-1.4,9.6c0.2,1.6,1.1,3.5,0.8,5
		c-0.4,2.2-2.5,3.2-3.6,4.1c-1.2,1-2.9,2.2-3.8,3.8c-1.2,2.4-0.2,7.6-3,7.8c-4.6,0.4-3.2-9.8-1.6-12.2c1.8-2.7,5.8-3.2,6.3-7.2
		c0.4-3.4-1.3-7.2-1.1-11C301.8,203.3,304.5,197.8,308.2,197z"/>
	<path class="st0" d="M98.6,5.8c3-0.7,2.3,2.6,1.9,4.6c-0.8,3.5-0.5,7.5-4.5,7c-1.4-0.2-2.5-1.6-2.7-2.8c-0.5-3.4,3-7.7,5-8.7
		C98.4,5.9,98.5,5.9,98.6,5.8z"/>
	<path class="st0" d="M204.7,6.5c2.7-0.8,5.1,2.8,5.1,5.6c0.1,2.1-1.3,4.1-0.7,6.4c0.6,2.1,2.7,3,3.8,4.5c1.2,1.5,2.7,4,2.3,6.5
		c-0.2,1.5-1.7,2.7-2.6,2.8c-4.2,0.7-4.9-5.1-7.3-6.1c-1.4-0.6-3.6,0.1-4.1-1.5c-0.4-1.4,1.1-3,1.4-4.5c0.2-1.3-0.3-2.8-0.3-4.6
		c0-1,0.4-2.4,0.5-3.7C203.1,9.2,202.5,7.1,204.7,6.5z"/>
	<path class="st0" d="M159,6.6c1.5-0.4,2.9,0.1,3.1,1.9c0.2,1.4-0.6,2.5-1.1,3.9c-0.5,1.3-1.1,2.8-2.2,2.8c-1.3,0.1-2.6-1.7-2.8-2.8
		C155.5,9.5,157.3,7.1,159,6.6z"/>
	<path class="st0" d="M191.8,9.9c1.5-0.1,3,0.8,3.1,2.2c0.2,2.7-3.9,4.2-5,6.5c-1,2-0.8,4.9-1.1,7.5c-0.5,5.6-2.4,8.4-4.6,12.5
		c-1,1.8-2.6,3.8-2.6,6.1c0,1.5,0.8,3.2,2.3,3.7c2.9,0.9,4.2-0.7,5.4,1.1c1.1,1.6-0.2,3.6-0.1,5.3c0.1,2.5,1.9,4.9,3.3,6.9
		c1.2,1.8,3.4,4.2,3.1,7c-0.3,3.1-3,3.1-4.2,5c-1.5,2.4-0.8,7.9-3.5,8.3c-2,0.3-3.1-2-3.4-4.1c-0.4-2.6-0.8-5.3-0.4-7
		c0.6-2.5,3-3.3,3.3-6.2c0.2-1.7-0.6-3.1-1.5-4.2c-0.8-1-1.8-2.2-2.6-3c-1.2-1.2-3-1.9-4.3-3c-2.6-2.1-6.3-6.7-4.7-12.1
		c1-3.3,4.7-5.9,6.2-8.9c0.8-1.6,1.1-3.7,1.9-5.6c0.6-1.5,1.8-2.8,2.2-4.2c0.5-1.7,0.2-3.5,0.4-5.4C185.3,14.7,188,10.1,191.8,9.9z"
		/>
	<path class="st0" d="M72.2,21.3c2-0.1,2.8,1.7,2.7,4.3c-0.1,2.8-0.2,6-3.1,5.7C67.9,30.9,67.4,21.5,72.2,21.3z"/>
	<path class="st0" d="M223.9,22.9c2.5-0.4,1.7,3.9,2.6,6c0.3,0.7,1.7,2.4,2,3.3c1.4,3.8,0.1,8.6-3.3,9.1c-2.4,0.3-3.9-0.2-5.3,0.4
		c-0.9,0.4-1.7,1.1-2,2c-1.1,2.8,0.7,6.9-2.6,7.3c-2.9,0.4-5.4-3.5-5.8-5.6c-1-4.6,3.8-8.5,7-9.5c3.2-0.9,6.5-0.5,7-3.3
		C224,30.6,220.2,23.5,223.9,22.9z"/>
	<path class="st0" d="M44.7,26.7c1.5-0.4,3.8,2.3,4.9,3.8c1.5,2.1,2,5.1,5,5.1c2.2,0,4.1-2.7,5.8-2.6c3.2,0.1,3.2,5,1.6,7.5
		c-0.4,0.7-1.3,1.6-1.9,2c-2.9,2.2-7.3,2.1-9.6,3.9c-1.5,1.2-2.1,4.3-4.3,4.3c-1.8,0-3-2-3.3-4.2c-0.3-2.6,0.8-6.5,0.5-10.2
		c-0.3-3.9-2.4-7.8,0.9-9.6C44.5,26.8,44.5,26.7,44.7,26.7z"/>
	<path class="st0" d="M158,28.6c1.6-0.4,3.5,0.7,3.8,2.6c0.4,3-2.4,6.3-4.5,6.6C151.2,38.7,155.1,29.2,158,28.6z"/>
	<path class="st0" d="M98.5,30.1c3.3-0.2,3.3,4.1,1.5,6.1c-2,2.3-7.3,3.1-8.7,6.6c-0.4,0.9-0.2,3.3-1.2,3.4
		c-1.6,0.1-2.6-3.4-2.7-5.3c-0.1-3,1.5-6,3.5-7.5C92.5,32.1,96.3,30.2,98.5,30.1z"/>
	<path class="st0" d="M122.2,30.8c2.2-0.5,4.1,1.7,4.2,4.2c0.3,5.1-4,6.5-3.5,11.1c0.4,4,5.2,5.1,5.6,8.9c0.2,1.8-0.5,5-1.1,6.2
		c-1.2,2.4-4.5,3.1-6.5,4.9c-1.5,1.4-2.7,3.5-4.1,5.4c-1.4,2-3.3,3.7-4.5,5.7c-1.5,2.7-3.7,6.5-3.3,10.8c0.2,2.4,1.7,4.6,2.4,6.9
		c1,3.1,2.6,6.5,1.4,9.6c-0.9,2.4-3.1,4.1-5.4,5.8c-2.5,1.9-4.1,3.8-6.1,5c-2.3,1.4-6.6,1.9-7.6,3.9c-0.6,1.1-0.4,3.3-0.7,5.1
		c-0.4,2.9-1.6,5.5-2.7,7.7c-1.5,3.1-4.4,5-4.1,10c0.2,2.3,1,4.8,1.4,7.5c0.4,2.3,1.4,4.5,1.9,6.8c0.3,1.4,0.5,3.2,0.7,4.7
		c0.2,1.7,0.7,3.4,0.5,4.7c-0.2,2.6-2.3,5.2-4.9,5.1c-3.2,0-4.7-2.9-7.9-4.3c-1.2-0.5-2.5-0.6-3.5-0.9c-2.6-0.9-6.4-3.5-5.8-6.5
		c0.6-3.2,4.4-1.7,6.5-0.8c3.3,1.4,6.7,2.6,8-1.1c0.5-1.5,0.1-3.2-0.4-5.1c-0.4-1.7-0.6-3.5-0.9-5.1c-0.7-3.2-2.3-7.5-0.9-11
		c1.7-4.4,7.6-5.4,8.3-11c0.4-3.7-2-5-1.1-8.3c0.6-2.2,3.4-3.1,5.4-4.5c1.7-1.1,3.2-2.6,5-4.5c1.7-1.7,3.8-3.1,4.2-5.3
		c0.4-2.2-1-3.9-1.1-6.4c-0.1-2.8,0.6-5.8-0.1-7.9c-0.9-2.6-4.9-4.3-4.9-8c0-1.1,0.6-2.3,1.8-2.4c2.7-0.4,3,2.7,5.6,2.7
		c2.7,0,3-3.6,4.5-6.1c1.1-1.9,3.3-3.5,4.7-5.4c1.2-1.6,2-3.7,3-4.9c1.4-1.6,3.8-2.5,5-4.1c1.7-2.2,3.6-8.7-0.8-9.2
		c-3.7-0.4-4.8,4.7-8.5,4.3c-4.4-0.4-1.9-6.7-0.3-8.5c1.5-1.8,3.8-2.7,5.4-4.6c1.4-1.7,2.9-4.7,3.4-6.5
		C120.8,34,120.3,31.5,122.2,30.8z"/>
	<path class="st0" d="M73.6,37c1.1-0.8,2.5,0.6,2.8,2s-0.3,2.7-0.3,4.1c0,3.7,2.7,7.4,2.6,11.2c-0.1,2.8-1.5,5.3-3,6.2
		c-1.2,0.7-3.3,0.8-4.7,1.4c-2.3,0.9-5.2,3-5.4,5.4c-0.3,3,2,4.5,1.6,8c-0.6,5.1-4.2,8.2-5.3,13.4c-0.5,2.4,0.2,5.3-0.1,7.3
		c-0.2,0.9-0.8,2.1-1.4,3.7c-0.2,0.6,0.1,6-1.3,6.5c-2.7,0.9-3.7-3.1-3.6-4.7c0.1-1.6,1.9-5.9,2.3-7.5c0.6-2.1,0-5.1,0.1-7.9
		c0.2-3.3,2.1-5.4,2.3-7.9c0.3-2.8-1.4-5-1.4-7.6c0-1.8,0.9-3.3,1.4-5.1c0.5-1.9,0.8-3.6,1.8-4.6c2.4-2.6,7.8-2.3,9.1-5.8
		c0.5-1.5,0.4-4.5,0.8-6.8c0.4-2.5,1-4.5,1.1-6.4C73.1,40,72.4,37.8,73.6,37z"/>
	<path class="st0" d="M200.6,37.1c1.5-0.2,2.8,0.2,3,1.8c0.3,2.6-3.8,4.9-6.6,4.3c-0.7-0.1-2-1.1-2-2.2
		C194.8,38.7,198.5,37.4,200.6,37.1z"/>
	<path class="st0" d="M26.6,40c2.7-0.8,2.3,2.3,3,4.9c0.9,3.5,2.3,3.8,2.4,6.6c0.2,4.9-2.5,7.5-3.6,10.6c-0.6,1.7-1.4,3.2-0.7,5
		c1.1,3.2,4.9,4.9,6.2,7.8c0.6,1.3,0.4,3.4,0.5,5.7c0.2,3.3,1.9,5.1,1.4,8.4s-3.8,5.9-6,8c-2,2-4.3,5.7-7.6,6.4
		c-3.4,0.7-5.3-1.5-5.4-3c-0.1-2.4,3.8-5.2,5-6.6c0.7-0.8,1.8-2,2.8-3c0.9-0.9,2.1-2.3,2.3-3.5c0.3-2.1-1.1-3.6-1.2-5.6
		c-0.1-1.9,0.7-2.6,0.8-4.6c0.2-2.2-0.8-4.7-1.4-6.7c-0.3-1.1-0.7-2.8-0.9-3.9c-0.4-2-0.5-4.5-0.3-6.6c0.3-2.5,2.1-5.6,2.2-8
		c0.1-3-3.6-9.6,0.1-11.8C26.4,40,26.4,40,26.6,40z"/>
	<path class="st0" d="M320,34.7c-1.5-0.1-2.9,0.1-3.9,0.3c-3.1,0.6-3.2,2.7-4.4,5.1c-0.9,1.7-2.7,3.2-4.4,4.9
		c-1.5,1.5-3.4,3.8-6.1,4.6c-4.1,1.2-6-0.9-10.2-0.1c-1.9,0.3-5.9,4.1-5.6,6.8s5.1,1,8.8,0.2c2.5-0.6,4.3-2.7,7-2.2s6,0.3,7.6-1
		c2.1-1.7,2.8-3.3,3.9-6.3c0.8-2.2,4.5-2.8,7.3-3.8L320,34.7L320,34.7z"/>
	<path class="st0" d="M1.6,42.4c2.6-1.6,3.7-3.6,3.1-5.7c-0.4-1.4-2.5-1.9-4.7-2v8.4C0.6,42.9,1.1,42.6,1.6,42.4z"/>
	<path class="st0" d="M142.6,40.9c3.2-0.4,3.4,3,4.9,5.7c1.1,2.1,2.9,3.3,2.7,5.3c-0.5,5.6-12.4,4.9-13.1-0.7c-0.4-3,0.9-5.1,2-7.2
		C139.9,42.5,140.8,41.1,142.6,40.9z"/>
	<path class="st0" d="M249.4,41.7c3.1-0.8,3.6,2.2,3.8,5.1c0.1,0.9,0.4,4.7,0.9,6.5c0.9,2.8,2.4,4.3,2.4,6.9
		c0.1,4.4-3.5,8.4-7.3,9.2c-6.9,1.5-11.4-7.2-8.3-12.7c0.9-1.5,2.5-2.6,3.3-4.3C245.7,49.1,245.1,42.8,249.4,41.7z M248.4,61.5
		c5.2,0.1,5.3-8.5,0-7.5C245.3,54.7,244.1,61.4,248.4,61.5z"/>
	<path class="st0" d="M100.7,45c0.7-0.1,2.3-0.1,2.6,1.4c0.5,2.9-2.7,4.4-3.5,6.5c-1.3,3.5,2,9.6-2.6,9.8c-2.7,0.1-4.1-3.1-3.4-6.5
		c0.3-1.5,1.2-3.3,1.8-4.7C96.6,48.7,97.9,45.5,100.7,45z"/>
	<path class="st0" d="M164.3,46.9c4.1-0.9,3.4,5.6,2.7,7.7c-0.9,2.6-2.1,6.4-4.2,7.3c-1.1,0.5-3.1,0.3-4.6,0.7c-1.8,0.5-6,3-6.4,5.1
		c-0.4,2.3,1.2,4,1.9,5.8c1.3,3.6,2,8.1,0.3,11.9c-1,2.2-2.7,4.2-4.1,6.2c-1.3,1.9-3.5,4.2-3.3,6.9c0.2,2.5,2.4,4.1,5,3.9
		c3.9-0.3,4.9-6.2,8.9-5.8c1.1,0.1,2.3,1,2.6,2.2c0.7,3.3-3,5.4-4.1,7.9c-0.8,1.7-0.8,3.9-1.6,6c-2.4,6-8.3,7.4-6.2,15.2
		c0.6,2.2,2.6,4.4,1.9,6.6c-0.3,1.1-1.4,1.6-1.9,1.6c-2,0.2-2.8-1.8-3.3-2.7c-1.4-2.6-3.4-4.5-7.9-4.1c-2.7,0.3-5.8,1.8-6.4-1.2
		c-0.5-2.7,2.8-6.2,4.7-7.3c1.4-0.8,3.4-1,4.7-1.6c1.6-0.7,3.8-2.6,5.1-3.8c1.3-1.2,3.4-3.3,3-6c-0.5-3.3-4.7-4.3-7.7-2.8
		c-1.1,0.6-2.2,2-3.3,3.4c-0.8,1-2.3,3.2-3.8,2.6c-2.1-0.9,0.2-4,0.8-4.6c1.4-1.5,2.9-1.7,3.4-3.5c0.4-1.6-0.5-3.5-0.1-5
		c0.3-1.3,1.1-2.8,1.6-4.3c0.7-2,0.9-4,1.6-5.6c1.5-3,4.2-4.6,4.5-8.4c0.1-1.4-0.4-2.9-0.5-4.6c-0.1-1.2,0-2.6-0.1-3.8
		c-0.2-1.5-0.6-2.6-0.4-3.8c0.5-3.4,3.8-5,5.6-6.9s3.6-5.3,5.3-7.9C159.7,51.9,162,47.4,164.3,46.9z"/>
	<path class="st0" d="M234.6,47.1c1.2-0.2,2.7,0.5,2.8,2.2c0.1,1.8-2.3,5-3.8,6c-1.4,1-3.4,1.4-4.3,2.7c-0.8,1.2-1.1,3.4-1.6,4.3
		c-0.8,1.4-2.8,2.4-3.9,4.2c-0.6,0.9-0.8,2.3-1.4,3.5c-0.2,0.5-0.7,2.7-2.7,2c-1.8-0.6-0.2-3.6,0-5.1c0.4-3-0.6-5.7,0-7.3
		c0.6-1.5,2.5-2.5,3.5-4.2c0.9-1.5,1.3-3.9,2.6-4.9c1.2-0.9,3.6-1,5.7-1.8C232.9,48.3,233.5,47.4,234.6,47.1z"/>
	<path class="st0" d="M49.3,57.3c0.5-0.1,1.9,0.2,2.2,1.5c0.6,2.8-1.8,4.5-2.2,8c-0.3,3.1,1.3,7.3-1.9,7.6c-3.4,0.3-5.8-5.8-4.3-9.5
		c0.5-1.3,1.7-2.6,2.7-4.1C46.9,59.2,47.5,57.5,49.3,57.3z"/>
	<path class="st0" d="M203.2,61.4c1.8-0.4,2.7,1.7,3.9,3c1,1,2.2,1.6,2.8,2.4c1.1,1.3,2.5,3.7,3.8,5.6c1.5,2.2,3,4.4,3.3,6.9
		c0.4,3.8,0,10.6-2.3,11.1c-1.6,0.3-3.8-1.5-4.6-3s-1.3-3.9-2.6-6c-1.6-2.7-3.3-4.6-3.4-8.4c0-1.4,0.2-2.9-0.1-4.2
		C203.6,67.3,199.6,62.2,203.2,61.4z"/>
	<path class="st0" d="M15.4,56.9c4.2-1.3,4.4,3.3,3.1,5.7c-0.8,1.7-2.1,4.8-2.5,7.1c-0.5,3.4-0.5,6-1.4,8.7
		c-0.9,2.4-2.3,5.1-3.7,6.5c-1.5,1.5-6.9,4.4-7.5-0.5c-0.4-3.3,3.3-6.5,4.5-8.3c1.5-2.3,3.4-6.1,4.1-8.7
		C12.9,63.3,11.7,58,15.4,56.9z"/>
	<path class="st0" d="M292.2,65.2c1.2-0.3,2.9,0.7,3.1,2.7c0.2,2.6-1,4-1.3,6.6c-0.4,3.5,2.8,5.6,2.8,8.5c0,2.5-2.6,6.4-2.9,9.2
		c-0.3,2.6-0.4,5.9-2.8,5.8c-2.1-0.1-2.5-4-2.2-7.3c0.2-2.3,1.2-3.9,1.1-6.6c-0.2-3.3-2.3-6.1-1.9-9.9c0.2-1.6,1-2.9,1.6-4.7
		C290.2,67.7,290.5,65.6,292.2,65.2z"/>
	<path class="st0" d="M132.1,67.2c2.4-0.6,3.9,1.9,3.8,4.5c-0.1,2-1.7,3.9-1.6,5.8c0.2,2.9,4.1,2.8,4.5,4.9c0.4,2.2-1.6,4.3-2.8,4.5
		c-2.5,0.4-3.9-1.9-6.4-1.9c-1.9,0-3.1,2-5.3,2.6c-2.2,0.5-5.4-0.2-5.7-2c-0.2-1.3,1.1-2.5,2.3-3.7c1.1-1.1,1.9-2.4,2.6-3.3
		c1.7-2.2,4.4-4.3,5.4-6.2C129.9,70.3,129.8,67.7,132.1,67.2z"/>
	<path class="st0" d="M84.5,68.5c1.2-0.1,3.1,0.3,3.7,1.9c0.7,2.1-0.9,4.1-0.9,6.2c0,3,1.5,4.9,1.1,7.5c-0.5,2.8-2.6,5-4.5,6.2
		c-1.3,0.9-3.9,1.3-4.5,3.1c-0.7,2,0.7,4.4,1.4,6.1c0.8,1.9,1.8,3.7,1.6,6.1c-0.3,3.5-3.8,6.3-4.2,9.9c-0.3,2.5,1.6,4.7,0.8,6.4
		c-0.6,1.3-5.8,2-7.7,0.5c-2.3-1.7-1.1-6.1-0.3-8.7c0.9-3,2.3-5.4,2.7-8.3c0.4-2.8-0.3-5.3-0.7-7.6c-0.4-2.3-1.7-4.6-1.5-6.9
		c0.4-4.5,6.6-4,7.7-7.7c0.9-2.9-1.2-5.7-0.9-8.7C78.6,71.2,81.5,68.8,84.5,68.5z"/>
	<path class="st0" d="M169.5,69.5c2.9-1.1,2.8,5,3.4,7.9c0.6,2.9,2.9,5.8,3.1,9.1c0.1,1.9-0.5,4-0.8,6.1s-1,4.2-2.7,4.2
		c-3.9,0-2.4-7.5-2.6-11.5c-0.2-3.5-1.5-5.6-1.8-7.9C167.9,75.5,168.2,70,169.5,69.5z"/>
	<path class="st0" d="M274.3,61.5c4-0.8,3.2,4,2.1,6.8c-0.6,1.7-6.1,9.9-4.3,14.9c1,2.9,2.9,4.5,4.3,6.8c1,1.7,2.2,4,1.8,6.6
		c-0.4,2.5-2,4.1-3.7,5.7c-1.4,1.4-3.6,2.9-4.3,4.9c-0.5,1.5-0.3,3.4-0.4,5.3c-0.1,1.8-0.7,3.6-0.8,5c-0.2,2.8,0.7,5.2,0,7.7
		c-1,3.5-4.8,6.9-7,9.5c-1.2,1.3-2.8,2.7-4.3,3.9c-1.7,1.2-3.6,2.3-4.5,3.8c-0.9,1.7-0.8,4.7-2.7,5.1c-2.5,0.5-5.3-2.5-5.7-4.6
		c-1-5.5,4.8-7.2,8.3-10c2.4-2,6.6-6.1,7.6-9.8c0.7-2.6,0.2-5.2,0.9-7.6c0.5-1.7,1.6-3.2,2.3-4.9c0.8-1.9,1.3-3.9,2.2-5.6
		c1.4-2.7,4.4-5.5,4.5-8.5c0-3.9-4-5.6-5.3-8.9c-3.7-10.3,1.6-17.9,4.1-21.3C270.7,64.5,271.5,62.2,274.3,61.5z"/>
	<path class="st0" d="M255.4,76.1c3.3-0.6,1.8,6.2,2.2,9.3c0.6,5,2.8,6.8,2.6,11.4c-0.2,4.5-4,7.4-5.8,10.8
		c-1.5,2.8-1.9,7.7-5.4,7.9c-5.2,0.2-5.7-8.2-3.7-12.2c1-2,3.3-3.7,4.5-6.5c1.4-3.4,0.8-8.1,1.2-11.8
		C251.3,82,252.3,76.7,255.4,76.1z"/>
	<path class="st0" d="M238.3,79.9c2-0.5,3.6,2,4.3,3.4c0.7,1.5,1.7,4.2,1.1,6.2c-1,3.3-3.9,4.2-5.3,5.7c-1,1.1-2.4,2.5-2.3,4.6
		c0.2,2.7,1.4,4.1,1.1,7c-0.4,4-4.3,10.3-6.8,12.5c-1.5,1.2-4.9,2.7-5.8,0c-0.6-1.6,0.4-3.6,1.1-5.1c0.6-1.5,1.4-3.1,1.8-4.7
		c0.9-4,0.6-9.3,3.1-11.9c0.6-0.7,1.6-1.5,2.4-2c1.2-0.8,2.3-1.3,3.8-2.7c1.5-1.5,1.5-3.6,1.4-5.6C238,85,234.9,80.7,238.3,79.9z"/>
	<path class="st0" d="M187.2,89c0.4-0.1,0.8-0.2,1.2-0.1c3.2,0.6,4,6.6,0.4,7C185.3,96.4,182.8,89.7,187.2,89z"/>
	<path class="st0" d="M49.3,90.8c0.6,2.7-1.6,3.8-2.6,5.8c-0.8,1.8-0.7,4-1.1,6c-0.4,1.9-0.7,4-1.5,5.4c-0.7,1.2-3.3,3.5-5.1,2.7
		c-1.3-0.6-1.5-3.3-1.4-5.6c0.2-2,0.7-3.8,1.9-5.3c1.3-1.7,3.9-2.8,5.1-4.6C45.8,93.6,46.6,89.3,49.3,90.8z"/>
	<path class="st0" d="M197.8,93.9c1.7-0.4,3.8,0.6,4.2,2.4c0.3,1.6-0.6,3.6-1.4,5.1c-2.2,5-3,11.8-7.7,14.4
		c-1.6,0.9-3.3,0.8-4.6,1.6c-1.6,1-3.2,3.8-3.4,6.2c-0.2,2.2,1.5,7.5-1.1,7.9c-2,0.2-3.2-4.1-3.4-6.2c-0.1-0.9,0.1-2,0-3.1
		c-0.3-4.3-3.8-7.9-2.7-11.2c0.3-0.8,1.4-1.8,2.2-1.9c2.9-0.4,3.6,2.7,7,2.3C194.2,110.5,190.2,95.4,197.8,93.9z"/>
	<path class="st0" d="M91.8,94.3c4-0.8,4.4,5.7,1.1,6.2C89,101.1,88.1,95.1,91.8,94.3z"/>
	<path class="st0" d="M127.1,97.1c3.6-0.5,3.9,3.3,2.7,6.4c-0.8,1.9-2.3,3-3.1,4.9c-0.7,1.6-0.3,4.7-0.9,6.5c-0.5,1.3-2.3,3.2-4.1,3
		c-4.4-0.5-0.4-8.2-0.8-12.3c-0.2-2-1.7-3.2-1.2-5.3c0.5-2.2,2.7-2.1,5.1-2.6C125.6,97.5,126.4,97.2,127.1,97.1z"/>
	<path class="st0" d="M216.3,98.1c4.7-0.5,3.6,8-0.3,8.1c-2,0.1-3.4-1.8-3.5-3.7C212.4,100,214.2,98.3,216.3,98.1z"/>
	<path class="st0" d="M279.6,135.7c-1.3-1.3,0.2-3.3,0.5-4.4c0.3-1,0.9-4.1,0.1-9.9c-0.6-4.5-1.7-8.3,2-10.2
		c0.4-0.2,1.6-0.5,2.4,0.1c1.1,0.8,0.8,2.7,0.9,4.7c0.1,1.8,0.8,3.9,1.5,5.6c0.6,1.5,1.8,2.7,1.6,4.3c-0.1,1-1.3,2.5-1.9,3.4
		c-1.4,2-2.2,3.2-3.7,5C282.2,135.6,281,137.1,279.6,135.7z"/>
	<path class="st0" d="M211.3,111.5c1.5,0,2.9,0.8,3.1,2c0.9,4.7-7.4,6.5-6.8,0.9C207.9,112.7,209.2,111.5,211.3,111.5z"/>
	<path class="st0" d="M32.8,115.7c4-0.5,9.1,2.8,9.2,6.5c0.1,2-1.2,3.3-2,5.3c-1.3,3.2-1.8,7.2-5.6,7.5s-9.1-4.5-9.2-9.1
		C25.1,121.5,28.4,116.2,32.8,115.7z M31.2,123.3c0.5,2,4.3,2.8,5.8,0.8c1.6-2.1-0.3-4.6-2.8-4.5C32.2,119.8,30.5,120.8,31.2,123.3z
		"/>
	<path class="st0" d="M169.6,116.2c0.6-0.1,2,0.1,2.4,1.1c0.7,1.5-0.4,3.4-0.5,5.4s0.4,3.2,0.4,5.3c-0.1,3.9-2.1,5.6-3.8,8.1
		c-0.9,1.4-1.5,3-2.2,4.3c-1.3,2.8-2.6,7.3-6.1,6.8c-0.8-0.1-2.1-1.1-2.3-2.3c-0.3-2,1-3.2,2-4.9c1.9-3.1,2.8-5.8,4.9-8.8
		c1.1-1.6,2.2-2.8,2.6-4.2c0.7-2.7-0.8-6.8,0.3-8.9C167.6,117.5,168.3,116.5,169.6,116.2z"/>
	<path class="st0" d="M16,107.6c1.1,1.6-2.7,5.8-4.2,9.6c-0.6,1.5-1,3.3-2,5c-0.7,1.2-2.9,4-4.6,2.7c-1.3-1,0-2.9,0.7-3.9
		c0.8-1.4,1.5-2.5,1.9-3.7c1-2.8,1.2-6.6,2.7-8.4C11.4,107.8,14.9,106.1,16,107.6z"/>
	<path class="st0" d="M55.7,122.2c4.5-1,3.7,6.4,2.4,9.2c-0.8,1.8-2.3,4-3.5,6c-1.4,2.2-3.2,4-3.7,6.4c-0.5,2.6,0.1,4.8-0.1,7.2
		c-0.6,5.4-4.6,9-8.5,11.7c-2.8,1.9-5.8,3.3-7,6.4c-0.5,1.4-0.5,4-0.8,5.8c-0.4,2-1.3,4.5-1.9,7c-0.5,2.4-0.8,5.1-1.6,7.2
		c-1.1,3-3.9,7.3-8.1,6.5c-1.4-0.3-2.6-1.8-2.7-2.8c-0.2-2,1.7-4.8,2.8-6.5c1.4-2,3-3.5,4.1-5.3c1.3-2.3,2.6-5.6,2.8-8.1
		c0.3-2.7-0.8-5-0.1-7.7c0.7-2.6,3.7-5.2,6-7c2.5-2.1,5.5-3.7,6.5-6.4s0.1-8,1.2-11c1.3-3.4,5.2-5.9,6.9-9.2
		C51.8,128.5,52.3,122.9,55.7,122.2z"/>
	<path class="st0" d="M197.9,123.8c4.2-1,6.2,3.8,5.8,8.3c-0.2,2.3-1.4,4.4-3.3,6.1c-1.7,1.5-4.1,3.3-6.4,2.8
		c-1.3-0.3-2.6-1.9-2.3-4.2c0.2-1.8,2-3.4,2.8-5.6C195.8,128.1,194.6,124.6,197.9,123.8z"/>
	<path class="st0" d="M236.9,124.2c2.4-0.4,4.4,0.7,4.4,3.4c0,1.7-2.4,4.6-3.6,6.9c-1.5,3-1.2,6.2-4,7.1c-3.1,1-3.9-2.9-3.6-5.8
		c0.3-3.4,2-5.4,2.9-7.2C234.1,126.7,235,124.5,236.9,124.2z"/>
	<path class="st0" d="M123.1,129.9c2.7-0.3,4.5,2.2,3.3,5.1c-0.6,1.4-2.3,2.8-3.4,4.2c-1,1.4-1.7,3.2-2.8,4.7
		c-1,1.4-2.2,2.1-3.3,3.1c-1.2,1.1-2.5,2.4-3.9,2.4c-2.4,0.1-5.4-2.6-4.7-5.7c0.6-3,5.3-2.4,6.5-5c1.3-2.7,0.4-6.4,3.1-7.9
		C119.2,130.3,121.5,130.1,123.1,129.9z"/>
	<path class="st0" d="M104,133.2c0.4,2.4-1.3,3.6-2.3,5.4c-0.9,1.5-2.1,3.8-4.2,3.8c-1.6,0-2.9-1.4-3-3c-0.1-3,3.7-6.3,7-6.8
		C102.4,132.5,103.4,132.5,104,133.2z"/>
	<path class="st0" d="M67.5,133c2.7-0.4,4.9,0.6,5.1,2.7c0.3,2.6-1.6,4.2-2.6,6.1c-1,1.9-2.2,4.4-4.5,4.2c-1-0.1-1.9-0.8-2.3-1.6
		c-1.4-2.8,0.1-9.5,1.9-10.7C65.8,133.3,66.7,133.1,67.5,133z"/>
	<path class="st0" d="M16.7,130.5c0.2,0,1.2-0.3,1.9,0.4c2.3,2.1-0.3,7.6-1.2,9.5c-0.7,1.4-1.2,2.5-1.8,4.3c-0.6,1.7-1,3.5-1.6,4.5
		c-0.8,1.3-4.5,4.6-6.8,3c-2.7-1.9,1.1-10.4,2.3-12.2c1-1.6,2.3-3.4,3.3-4.9C13.6,133.7,14.9,130.8,16.7,130.5z"/>
	<path class="st0" d="M174.6,140.6c2.8-0.5,3.9,1.6,5.7,3.9c1.7,2.2,3.8,3.8,3.8,7c0,2.3-1.5,4.1-3.5,4.2c-2.1,0.1-3.9-1.8-5.6-3.7
		c-1.8-2.1-5.1-5.1-3.5-9.1C172,141.9,173.1,140.9,174.6,140.6z"/>
	<path class="st0" d="M137.1,145.2c2.9-0.6,3.3,2.7,7.3,3.1c3.1,0.3,8.1-1.3,8.5,2.2c0.2,1.9-1.6,3.4-2.6,4.5
		c-1.5,1.5-3.3,3.5-6,3.5c-3.9,0.1-6.2-3.2-7.7-5.8C135.4,150.6,133.6,145.9,137.1,145.2z"/>
	<path class="st0" d="M96.3,150.9c2.5-0.7,6.8,1.1,7.9,2c0.6,0.5,1.3,1.4,1.8,2.4c1.4,3.2,0.9,8.3,3.9,8.8c3.4,0.6,4.6-3,6-5.1
		c0.8-1.2,3.3-5.8,5.7-5.3c2.7,0.6,0,5.1-0.5,6c-1.1,2-1.8,4.5-2.7,6.1c-0.9,1.6-3.1,2.8-3.8,4.2c-1,1.9-0.7,4.3-1.4,6
		c-2.1,5-9,2.3-10.6-1.6c-1.2-3.1-0.7-9.3-1.9-12.9c-0.5-1.5-1.3-3.1-2.7-4.6C96.8,155.7,92.6,152,96.3,150.9z"/>
	<path class="st0" d="M224.5,150.9c1.2-0.2,2.2,2.1,3.7,3.1c3.8,2.6,8.9,3.5,8.4,9.6c-0.2,2.3-2.2,4-3,6.8c-0.8,2.9,0,6.5-0.9,9.5
		c-0.8,2.4-2.9,3.7-3.8,6c-0.9,2.1-0.9,6.8-1.9,8.5c-2,3.5-7.6,4.4-10.3,8.1c-1.5,2.1-2.5,5.1-3.8,7.7c-1.3,2.7-2.5,5.6-3.9,7.6
		c-1.8,2.5-4.9,3.7-6.2,6.5c-0.6,1.4-0.8,3.1-0.4,4.3c0.9,2.9,4.3,3.2,6.4,4.9c2.2,1.8,3.4,5.7,1.9,9.3c-2.2,5.4-6.3,7.8-10.6,11.2
		c-1.1,0.9-2.7,2.6-4.6,2.6c-3.3-0.1-4.4-4.2-3.3-7.5c0.9-2.5,2.8-4,5.1-5.4c2.2-1.3,4.9-2.5,5.1-5.3c0.4-4.8-5.2-6.8-6.1-10.4
		c-0.7-3.1,1-6.6,2.4-8.7c1.4-2.1,4.1-3.5,5.1-5.3c1.4-2.4,2.1-5.5,3.3-8.1c1.9-4.4,3.2-8.5,6.6-11.1c1.9-1.5,5-2.4,6.2-4.3
		c0.8-1.2,0.9-3.6,1.6-5.6c1.2-3.4,4.5-5.8,5.4-8.7c1-3.2,0.9-10-3.3-10.3c-2.5-0.1-4.5,2.4-5.6,3.9c-1.9,2.7-3.2,5.3-5.7,7
		c-2.3,1.7-7.2,3.9-11.4,2.8c-3.1-0.8-4.2-2.7-7.5-3.8c-2.9-1-8.9-0.4-9.1-4.6c-0.3-5.3,7.8-4.7,11.9-3.4c3.9,1.3,6.5,4.2,11,2.3
		c4.4-1.9,7.3-7.4,11.6-9.1c1.8-0.7,4.5-0.5,4.9-2.2c0.5-1.9-1.6-3.3-1.4-5.8C222.8,152.3,223.4,151.1,224.5,150.9z"/>
	<path class="st0" d="M261.4,151.9c3.4-0.4,1.4,4.2,0.5,6.2c-1.5,3.4-2.5,6.7-4.2,9.8c-1,1.7-2,3-2.4,4.5c-1,3.2,0.6,8-0.5,11.2
		c-0.5,1.4-2.9,5.9-5.4,5.1c-2.2-0.6,0.1-5-0.5-7.3c-0.8-3-3.4-3.8-3.5-6.9c-0.1-3.2,2.4-5.7,3.9-8.4c2.1-3.8,3-8.4,6-10.8
		C256.5,154.2,259.7,152,261.4,151.9z"/>
	<path class="st0" d="M165.7,158.6c4.5-0.1,0.4,8.1-0.7,9.8c-1.3,2.1-3.9,4-6,6.4c-1.7,1.9-4.1,3.4-5.1,5.4c-1.2,2.3-1.1,5.9-3,8.3
		c-2,2.5-7.3,3.3-11.4,1.9c-1.6-0.5-4-2.1-4.1-4.2c-0.1-4,6.3-3.7,8.1-6.4c2.2-3.2,1.4-5.9,4.5-7.6c1-0.5,3.4-0.8,4.6-1.5
		c1.9-1,2.3-3.6,3.8-5.4c0.9-1.1,2.7-2.4,4.2-3.5C162,160.7,164,158.7,165.7,158.6z"/>
	<path class="st0" d="M56.9,160.9c6-1.3,7.4,17.3,0.9,17.1c-2.8-0.1-2.8-2.8-3.1-6.4C54.4,167.8,52.7,161.9,56.9,160.9z"/>
	<path class="st0" d="M127.6,167.7c2-0.4,4.7,0.1,4.7,2.7c0,2-2.2,3.5-3.5,4.5c-1.4,1.1-3,2.8-5.1,2.7c-1.6-0.1-2.9-1.4-3.1-2.7
		C120,171.4,124.5,168.3,127.6,167.7z"/>
	<path class="st0" d="M285,173.7c3.6-1,8.4,4.4,9.5,7.2c0.6,1.6,1.2,4.6,1.4,6.5c0.3,2.7-1.7,5-2,7.4c-0.4,3.2,1.5,9.1-2,9.9
		c-3.7,0.8-4.8-5.4-4.2-8.5c0.3-1.9,2.1-5,2.7-6.9c0.7-2.1,1-3.5,0.6-5.6c-0.5-2.9-4-4.3-6.6-5.5C282.9,177.6,282.4,174.4,285,173.7
		z"/>
	<path class="st0" d="M90.9,175.3c1.9-0.4,3.7,0.4,3.8,2.2c0.1,3.3-6,3.4-6.1,0.3C88.6,176.6,89.4,175.6,90.9,175.3z"/>
	<path class="st0" d="M172.4,178.3c1-0.2,2.7,0.4,2.8,1.8c0.3,2-1.9,3.3-2.4,4.9c-0.6,1.8-0.4,3.8-0.7,5.7
		c-0.9,6.6-3.6,15.4-10.7,15.7c-1.3,0.1-3.9-0.3-5.4-0.4c-1.1-0.1-3.1-0.3-3.7-2c-0.8-2.5,1.4-4.5,2.4-5.3c2.3-1.7,5.5-1.8,7-3.9
		c1.4-1.9,1.7-4.7,3-6.6c1.2-1.9,3.3-2.9,4.2-4.6C170.1,181.5,169.8,178.8,172.4,178.3z"/>
	<path class="st0" d="M315.8,180.4c4-0.3,4.1,10.3-1.2,9.2C310.5,188.8,312,180.7,315.8,180.4z"/>
	<path class="st0" d="M68.1,181.4c2.5-0.4,5.5,1.6,6.2,3.5c1.3,3.3-1,6.3-3.4,6.4c-2.5,0-6.5-3.9-5.7-7.6
		C65.5,182.7,66.5,181.7,68.1,181.4z"/>
	<path class="st0" d="M8.3,183.8c1.2-0.2,2.6,0.4,2.7,2s-1,2.8-1.2,4.9c-0.3,2.6,1.2,9-1.5,9.2c-2.8,0.3-3.4-7.5-3.1-10.8
		C5.4,186.5,6.5,184.2,8.3,183.8z"/>
	<path class="st0" d="M89.5,186.4c2.7-0.3,10.5,1.4,10.6,4.6c0,1.5-1.6,2.9-2.7,3.1c-2,0.4-3.8-0.9-6.1-0.7c-1.4,0.1-2.8,1-3.5,2
		c-1.2,1.7-1.1,4.4-2.3,6.2c-1.2,1.9-5.8,4-6.9,0.5c-0.4-1.4,0.3-3.3,0.7-5c0.4-1.7,0.7-3.7,1.2-4.6
		C81.7,190.2,86.2,186.8,89.5,186.4z"/>
	<path class="st0" d="M121.9,187.1c2.1-0.4,3.9,0.6,4.1,3.1c0.2,2.7-2,5.2-3.7,7c-1.9,2.2-4.4,5.5-8.1,4.6c-3.2-0.7-4.5-5.2-2-8.1
		c1-1.2,2.7-2.3,4.3-3.4C118.4,189,120.1,187.4,121.9,187.1z"/>
	<path class="st0" d="M171.1,213.8c-0.5-3.9,3.2-5.1,4.6-7.5c0.6-1.1,1.9-2.8,2.5-4.5c0.7-2.1,2.3-4.3,2.7-5.8
		c0.7-2.6-0.5-7,2.8-7.2c2.3-0.1,4.8,2.2,4.3,5.1c-0.2,1.3-1.5,2.6-2.3,3.8c-0.9,1.2-1.7,2.6-2.4,3.7c-1.7,2.3-2.9,6.8-4.2,8.8
		C177.7,212.2,172,220.1,171.1,213.8z"/>
	<path class="st0" d="M200.9,191c5-0.6,2.1,8.5,0.5,10.6c-1.3,1.7-3.1,2.6-5.1,4.1c-1.2,0.9-2.3,2.1-3.7,1.9c-1.9-0.3-2-2.9-1.4-4.9
		c1.2-3.7,4-5,6-8C198.2,193.2,198.9,191.2,200.9,191z"/>
	<path class="st0" d="M257.3,194.5c1.7-0.4,3.3,0.8,4.9,1.4c3.6,1.3,8.8,2.1,11.8,4.1c2,1.4,3.8,4,3.8,6.5c0,2.1-1.7,4-3.4,4.2
		c-4.7,0.6-5.1-5.7-10-5c-1.1,0.2-2,1.1-2.6,2c-0.6,0.8-1,2.3-2.3,2.3c-1.6,0-2.1-2-2.7-4.2C255.9,203,253,195.7,257.3,194.5z"/>
	<path class="st0" d="M136.4,194.7c2.3-0.6,3,1.9,3.9,3.8c0.7,1.4,2.1,3.5,2.2,5.3c0.1,4.7-5.3,9.9-7.7,13.4c-1,1.5-1.9,3.1-2.8,4.2
		c-1.6,1.8-4.2,2.9-5.6,5.3c-1.8,3.1-0.6,6.6-0.8,10.6c-0.2,3.1-1.6,7.9-3.1,10c-2.2,3.1-6.2,3.3-5.6,8.3c0.2,1.5,1.4,2.8,2.4,3.9
		s1.9,2.3,2.7,3.5c1.6,2.4,4,5.3,3.4,9.1c-0.4,3-3.6,3.9-3.7,6.8c0,2.2,2.8,4.5,4.6,5.6c1.8,1,4,1.2,5.1,2.7c1.9,2.4,2,9,0.9,12.5
		c-0.3,0.9-0.9,2.8-2.4,2.8c-1.8,0.1-2.4-2.1-3.4-4.6c-0.5-1.4-1.4-2.6-1.9-3.8c-0.7-1.8-0.9-3.6-1.6-4.7c-0.8-1.3-2.8-2.8-5-2.4
		c-2.6,0.5-2.1,3.1-3,5.8c-0.9,2.7-4.6,7.6-8.4,7.5c-1.7-0.1-3-1.2-3.3-2.7c-0.2-1.6,0.9-3.4,1.9-5.1c1.8-3,3.2-6.1,4.7-9.1
		c0.9-1.7,2.1-3.2,2.8-5c0.5-1.3,0.7-3,1.1-4.2c0.5-1.5,1.6-2.9,1.6-4.7c0.1-2.1-1.3-4.1-1.9-6.2c-0.8-2.7-2-5-1.8-8.3
		c0.3-3.7,2.3-5.5,3-9.1c0.8-4.4-0.6-10.1-0.3-15c0.2-3.3,1.2-6.3,2.7-8.5c2.1-3.2,6.2-6.7,9.6-8.9c3.9-2.6,9.4-4.3,9.5-8.9
		c0-2.4-2.4-3.6-2.2-6.6C134.5,196,135.5,194.9,136.4,194.7z"/>
	<path class="st0" d="M85.2,254.7c1.5,0.5,0.9-6.7,4.2-8.1c1-0.4,2.6-0.1,4.5,0c2.4,0.2,4.4-0.2,6,0.4c1.6,0.7,3.1,2.7,2.8,4.6
		c-0.4,3.2-4.6,3.1-5.7,6c-1.2,3.4,2.9,9.1-1.4,9.9c-2.4,0.4-3.7-1.9-4.6-3.4c-2-3.1-3.3-7.1-5.8-7.4s-2.9,3.9-6,3.7
		c-2.2-0.1-3-3.7-3.3-6.4c-0.4-3.5,1.1-7.4-2.6-7.6c-3-0.2-4.4,3.5-7.5,3.7c-2.9,0.2-5.7-1.9-6.8-4.1c-1.1-2.1-0.6-6-1.9-6.6
		c-1.3-0.6-3,0.7-4.2,2.3c-1.4,1.9-1.9,5.2-4.3,5.3c-3.9,0.1-3.3-6.4-1.6-8.7c0.7-0.9,2-1.7,3.3-2.6c1.1-0.8,2.2-1.8,3.3-2.4
		c1.5-0.9,3.2-1.3,4.5-2.3c1.6-1.3,2.5-3.1,3.7-5.1c1.1-2.1,2.5-3.8,2.6-6.1c0.1-3.5-2.9-6.1-2.7-10.2c0.1-3,2.1-6.9,5.7-7
		c2.1-0.1,4.8,1.5,4.9,3.7c0.1,2-1.2,3.3-1.2,5.6c-0.1,4.6,0.6,9.8-0.5,12.9c-0.7,1.8-1.9,2.9-2.8,4.2c-1.1,1.4-2.1,3-3.1,3.9
		c-0.9,0.8-4.3,1.9-4.3,3.9c0,1,1,2.8,1.7,3.4c1,1,2.2,2.2,3.8,2.4c1.6,0.2,3.4-0.5,5.4-0.7s3.9,0,4.9-0.3c1.3-0.4,2.8-2.8,4.3-2.6
		c1.9,0.3,1.9,6.1,2,8.3C82.6,250.6,83.7,254.2,85.2,254.7z"/>
	<path class="st0" d="M103.5,204.7c0.8,0,2.3,0.1,3.1,0.8c1.9,1.7,1.2,6.1-0.9,6.5s-4.1-1.6-6.2-1.6c-3.9,0-6.5,4.3-8.9,7
		c-1,1.2-1.9,2.4-3,3.8c-0.7,1-2.5,2.8-2.3,4.5c0.3,2.1,4.4,2.6,5.6,3.8c2,2,2.2,9.5-1.5,9.9c-1.7,0.2-2.9-1.6-4.3-2.3
		c-1-0.5-2.4-0.7-3.3-1.2c-1.8-1-4.8-3.3-4.5-6.5c0.2-2,2.5-3.2,3.1-4.9c0.5-1.2,0.2-2.7,0.7-3.9c0.8-2.2,3-3.9,4.2-5.8
		c1.3-2.1,2.1-4.5,3.8-6.2C92.3,205.1,97.8,204.7,103.5,204.7z"/>
	<path class="st0" d="M48.5,207.9c7.6-1,3.2,12.7-1.5,12.1c-2.8-0.4-2.6-7.5-0.8-10.3C46.7,208.9,47.6,208.2,48.5,207.9z"/>
	<path class="st0" d="M320,206.3c-0.9-0.6-1.9-0.8-2.8-0.4c-0.2,0.1-0.4,0.2-0.6,0.4c-1.5,1.3-0.8,3,0.6,4.8
		c0.8,1.1,1.8,2.2,2.8,3.3V206.3z"/>
	<path class="st0" d="M2.6,217.6c0.8,1.5,1.6,3.7,2.2,6.1c0.6,2.3,1.3,4.8,3.5,4.9c2.2,0.1,3.5-2.6,4.7-4.3
		c3.4-5.2,12.6-16.4,7.7-18.3c-5.7-0.7-6.7,3.6-11,4.3c-1.8,0.3-3.4,0.1-4.9-0.4c-1.4-0.5-3-2.5-4.8-3.5v8
		C1,215.5,2,216.6,2.6,217.6z"/>
	<path class="st0" d="M236.3,213c2.6,1.8-0.8,5-0.9,7.7c-0.1,2.3,0.7,4.5,0.4,6.8c-0.2,2.1-1.4,3.7-1.2,5.7c0.1,1.7,1.3,3.2,1.1,4.9
		c-0.2,1.9-1.9,3.1-3.1,4.5c-1.2,1.4-2.3,3.3-4.2,3.3c-1.5,0-2.4-1.2-2.7-2.3c-0.9-3.2,1.5-5.8,0.4-9.3c-0.7-2.2-2.6-3.3-4.1-4.9
		c-0.2-0.3-1.1-0.8-1.1-1.8c0-2.8,3.9-1.9,5.8-3c1.7-0.9,2.2-3.8,3.5-6.2C231.2,216.2,233.5,212.6,236.3,213z"/>
	<path class="st0" d="M145.2,217.3c2.2-0.3,3.8,2.4,2.6,5.1c-0.9,2-4,5.4-6,5.1c-4.3-0.5,0.5-8.6,1.8-9.6
		C144,217.6,144.7,217.4,145.2,217.3z"/>
	<path class="st0" d="M107.4,218.5c4.7-0.9,2.5,9.8,1.8,12.3c-0.6,2.2-2.6,8.4-5.4,8.4c-2.6,0-3.8-6-3.8-8.8c0-1.3,0.4-2.8,0.9-3.9
		C102.1,224,105.6,218.9,107.4,218.5z"/>
	<path class="st0" d="M180.2,220.5c2.5-0.7,3.5,3.8,4.5,7.1c0.7,2.3-0.4,4.9-1.3,6.5c-1.8,3.2-4.5,4.5-5.3,8.1
		c-0.6,3.1,4.4,8,4.1,10.8c-0.2,1.6-1.6,3.7-3.3,3.7c-2.2-0.1-6.5-4.6-6-9.7c0.6-6.8,3.8-8.5,5.4-12.1
		C180.8,228.8,177,221.5,180.2,220.5z"/>
	<path class="st0" d="M166.1,220.5c1.5-0.2,2.3,4.2,2.2,6.5c-0.3,4.1-3.4,5.3-5.7,8.5c-1.3,1.8-2.1,5.6-4.3,5.7
		c-3.6,0.1-2-4.6-0.8-6.9c1.5-2.9,3.3-5.4,4.6-8.1C162.8,224.6,164.2,220.8,166.1,220.5z"/>
	<path class="st0" d="M282,228.4c0.9-0.1,2.7,0.4,3,2c0.4,2.2-1,4.2-1.8,5.1c-0.6,0.7-1.9,1.8-2.8,2.3c-2,1.2-5.5,1.6-5.7,4.1
		c-0.2,3,5.4,5.7,8,6c3.8,0.4,5.1-2,8.5-2.7c2.4-0.5,5.3,0,7,0.9c1.9,1.1,4.7,5.7,1.1,7.2c-1.6,0.6-3.7-0.5-5.8,0.1
		c-2.4,0.7-4.5,3.3-6.4,5.1c-1.9,1.9-5.3,3.6-5.4,6c-0.1,2.8,3.7,3.9,3.9,7.5c0.2,2.5-1.2,3.9-1.9,6.2c-0.8,2.5-0.8,5.3-3.1,5.4
		c-4,0.2-3.3-7.3-3.9-9.6c-0.9-3.1-2.7-5.3-2.6-9.8c0-1,0.3-2.7,0.5-3.4c0.5-1.4,2.6-2.9,2.6-5.1c0-1.8-2-3.1-3.4-4.3
		c-1.2-1.1-2.8-2.9-3.4-4.3c-0.5-1.2-0.5-3.9-1.1-5.6c-1-2.7-3.8-3.8-3.7-6.8c0.1-1.7,1.3-2.7,2.6-2.8c2.2-0.3,4.1,1.8,6.4,1.5
		C278.2,232.9,278.5,228.8,282,228.4z"/>
	<path class="st0" d="M137.2,238.7c2.7-0.2,5,1,4.6,4.1c-0.2,1.9-1.6,3.2-3.1,4.7c-1.3,1.3-2.8,3.5-4.3,3.5c-1,0-2.1-1-2.6-1.8
		c-1.9-3.5-0.3-8.4,2.2-9.8C135.1,238.9,136.1,238.8,137.2,238.7z"/>
	<path class="st0" d="M151.9,248.2c3,1.6,6.2,7.9,4.3,12.6c-0.5,1.4-1.6,2.6-2.8,4.1c-0.9,1-2.4,3.3-3.7,3.1
		c-2.8-0.3-0.7-7.3-0.5-9.1c0.5-4.7-2.7-8.4,0.8-10.4C150.3,248.3,151,248,151.9,248.2z"/>
	<path class="st0" d="M44.6,252.9c2.4-0.7,3.6,1.9,5.4,2.6c1.5,0.6,3.5,0.2,5.1,0.8c2.1,0.8,3.7,2.7,4.9,4.5c1.4,2.2,1.5,4.5,2.3,7
		c0.5,1.5,2.3,3.1,2.2,4.9c-0.1,1.2-1.1,1.9-1.6,2c-2.4,0.6-4.6-1.9-5.3-4.1c-1-3.2,0.7-6.9-1.1-8.5c-1.5-1.4-4-0.9-5,0.3
		c-1,1.3-1.5,3.4-1.9,5.6c-0.2,1.3-0.5,4.9-2.3,5c-3.4,0.2-1.6-6.1-1.6-8.7c0-2.1-0.6-4-1.1-5.1C43.8,257.3,41.7,253.7,44.6,252.9z"
		/>
	<path class="st0" d="M133.4,259.1c3.2-0.4,5.6,5.6,1.9,6.1C132.2,265.7,128.8,259.8,133.4,259.1z"/>
	<path class="st0" d="M223.9,262c1.2-0.3,2.4,0,3.3,1.4c1,1.6,0.6,3.8,1.1,5.4c0.6,2.2,2.3,5.5,3.7,6.8s3.1,1.4,4.2,2.2
		c2.7,1.8,5.1,5.9,5.3,9.3c0.2,3.9-2.2,6.2-2,9.8c0.1,3.4,4.9,7.6,0.9,10c-1.5,0.9-5,0.9-6.8,0.1c-2.3-1-5.9-4.9-6.8-7
		c-0.2-0.6-0.5-1.7-0.5-2.2c-0.6-6.5,6.4-6.5,7.5-10.7c0.6-2.6-0.5-5.1-2.4-5.4c-3.4-0.6-3.7,3.2-6.4,4.2c-1.1,0.4-3,0-4.7,0.5
		c-3,1-4.2,5.6-8.4,5c-1.1-0.1-2.2-1.2-2.3-2.2c-0.3-2,2-3.7,3.4-4.9c1.6-1.4,2.9-3.1,4.7-3.4c2.7-0.4,3.9,1.5,6.4,1.2
		c0.9-0.1,2.5-0.8,2.7-2.3c0.7-4.3-3.8-4.3-5.3-7.9C220.2,269.4,220.5,262.8,223.9,262z"/>
	<path class="st0" d="M184.8,263.3c3.1-0.8,5.9,3.2,9.3,3.3c2.6,0.1,4.6-2.2,7.6-2.2c2.1,0,4.1,1.4,4.3,3c0.4,2.2-1.7,4.3-2.7,5.4
		c-1.2,1.4-2.6,3.3-3.8,4.3s-4.2,2.6-6.4,2s-2.5-3.3-3.5-5.3c-0.7-1.3-2.4-2.9-3.5-4.1C185.1,268.8,181.3,264.3,184.8,263.3z"/>
	<path class="st0" d="M81.1,267.5c1.5-0.1,3.3,1.3,3.7,2.7c1,3.2-1.8,7.8,1.2,8.8c2.3,0.8,4.5-1.3,6-1.9c1.9-0.8,7.2-3,8.4,0.4
		c0.4,1.1,0.1,2.9-0.3,3.8c-0.7,1.8-2.4,3.1-4.3,5.3c-1.7,2-3,4.1-4.7,4.9c-2.3,1-7.4,0.3-8-2c-0.3-1.2,0.5-3,0.1-4.6
		c-0.4-1.8-2.5-3.1-3.4-4.9s-0.6-4.3-0.9-7.2C78.5,270.1,78,267.7,81.1,267.5z"/>
	<path class="st0" d="M146.7,273c1.3-0.3,3.2,1.3,3.9,2.7c0.4,0.8,1,3.5,0.8,5.6c-0.2,1.7-1.1,3.5-0.9,5.7c0.4,5.8,6.2,9.5,9.9,12.5
		c1.1,0.9,2.1,1.7,2.2,3.3c0,2.7-2.9,3.4-4.6,4.6c-2,1.4-3.1,5.1-6.4,4.7c-3.3-0.3-2.6-4.1-1.4-6.8c0.6-1.3,1.2-2.6,1.1-4.1
		c-0.2-2.3-2.4-3.7-3.5-6.6c-1-2.5-0.7-7.2-1.4-10.3c-0.3-1.5-0.7-3.1-0.9-4.9C145.1,276.8,144.1,273.6,146.7,273z"/>
	<path class="st0" d="M69.5,274.9c5.5-1.3,4.7,9.7-0.4,8.9C65.3,283.2,66,275.7,69.5,274.9z"/>
	<path class="st0" d="M190.3,0c0.1,0.2,0.1,0.4,0.2,0.6c0.9,3.1,4.7,3.2,5.4,0.6c0.1-0.4,0.2-0.8,0.2-1.2H190.3z"/>
	<path class="st0" d="M197.2,312.3c1-3,4.1-5.1,3.5-8.8c-0.5-2.9-3.3-4.2-4.1-6.8c-1-3.5,2.2-12.1-2.6-12.2c-1.3,0-2.4,1-2.7,2.2
		c-0.7,2.4,0.6,4.3,1.5,6c1.3,2.6,3.4,4.4,2,7.7c-0.9,2.2-3.1,3.9-4.3,6c-1.1,1.8-1.8,4.2-1.6,6.9c0.2,2.3,0.6,4,1.3,6.8h5.8
		C196.5,317.5,196.5,314.4,197.2,312.3z"/>
	<path class="st0" d="M0,288.6v5.5c2.6,0.6,5.6,0.2,6-1.8C6.5,289.1,2.6,289.3,0,288.6z"/>
	<path class="st0" d="M319.2,288.3c-1.7-0.7-2.3-2.1-4.1-1.6c-2.2,0.6-0.7,2.8,0.1,3.9c0.5,0.7,1.4,1.9,1.9,2.3
		c0.6,0.5,1.7,1,2.9,1.2v-5.5C319.7,288.5,319.4,288.4,319.2,288.3z"/>
	<path class="st0" d="M64.2,292.1c1.7-0.2,3.5,0.3,3.8,1.9c0.4,1.8-1.1,3.1-1.8,3.8c-0.8,0.8-2.2,1.9-3.7,1.8
		c-1.8-0.2-2.8-2.2-2.2-4.5C60.8,293.8,62.2,292.3,64.2,292.1z"/>
	<path class="st0" d="M256.3,293.8c4.3-0.3,7.2,3.1,7.3,6.6c0.2,5.3-4.4,9.5-8.3,10c-3.2,0.4-5.3-1.1-5.7-3.5c-0.4-2.5,1-4,0.9-6.1
		c0-1.9-1.2-2.1-0.8-3.8C250.3,294.8,253.5,294,256.3,293.8z M251.7,300.3c0.2,1.8,2.5,3.1,4.1,3c4.3-0.2,2.8-7.5-1.8-6.2
		C252.7,297.4,251.5,298.7,251.7,300.3z"/>
	<path class="st0" d="M90.4,0c1.3,4.6,6.7,3.1,6,0H90.4z"/>
	<path class="st0" d="M96.3,320c-0.6-2.3-2.5-3.4-3.1-5.6c-1-3.2-0.7-6.2-3.5-7.7c-1.5-0.8-3.3-1-5.1-1.6c-1.6-0.6-3.3-1.3-5-1.6
		c-3.6-0.7-8.1,0.2-9.8,3.1c-0.7,1.3-2.7,8.4,0.3,8.1c2-0.2,2.8-2,4.6-3.1c1.8-1.2,5.3-1.8,7.6-0.5c1.6,0.9,2.7,2.8,4.3,4.2
		c1.7,1.4,3.2,2.4,3.8,4.7l0,0H96.3L96.3,320z"/>
	<path class="st0" d="M0,63.6C0,63.5,0,63.5,0,63.6v6.9c1.8,0,3.6,0.3,3.8-3C4,65.1,2.2,64.5,0,63.6z"/>
	<path class="st0" d="M315.2,61.3c-2.8,0.1-5.9,3.8-7.3,8.3c-1.8,5.7-2.6,18,1.7,18.1c3,0,5.3-12.3,7.3-15.8c0.8-1.3,2-1.4,3.2-1.4
		v-6.9C318.1,62.6,316.8,61.3,315.2,61.3z"/>
	<path class="st0" d="M2.2,243.2c0.2-2,1.1-3.1,1.1-4.9c-0.1-2.3-1.4-4.4-3.3-5.6V248c0.4,0.3,0.8,0.5,1.3,0.5
		C2.9,248.3,1.9,245.5,2.2,243.2z"/>
	<path class="st0" d="M315.8,232c-3.3,0.8-2.9,4.3-1.8,6.7c0.8,1.7,2.4,2.7,2.9,3.9c0.6,1.5,1.7,4.3,3.1,5.4v-15.2
		C318.8,232,317.3,231.6,315.8,232z"/>
	<path class="st0" d="M78.3,4.6c-1.4-0.4-2.8,0.3-4.2,0.3c-1.5,0-2.9-0.5-4.3-0.5c-4.1-0.3-9,1.6-11.4,3.2c-1.2,0.7-2.3,2.3-3,3.3
		c-0.9,1.2-2.3,2.4-3.8,2c-2.2-0.5-1.4-3.4-1.9-5.8c-0.4-1.6-2.2-4.4-3.3-7H40c0.1,2.5,0.2,4.9-1,5.4c-1.2,0.6-2.7,0.5-3.9,1.1
		c-1.4,0.6-3,2.6-2.8,4.3c0.4,3.4,4.2,0.8,6.4,1.2c2.8,0.5,2.4,3.5,4.9,4.3c1,0.3,2.8,0,3.9,0.3c1.9,0.4,2.2,1.9,4.1,1.9
		c1.7,0,3.2-1.6,4.9-2.6c1.8-1,3.6-1.6,5-2.3c2.2-1.1,8.6-4.4,11.4-1.8c1.5,1.5,0.6,6,3,6.2c1.7,0.2,2.9-1.9,3.3-2.8
		C80.3,12.1,81.5,5.6,78.3,4.6z"/>
	<path class="st0" d="M45.6,316.2c0.1-1.4,0.9-2.6,1.8-3.6c1.4-1.5,3.7-1.7,5.4-3c1.4-1,2.7-2.7,3-4.6c0.6-3.4-2.4-5.6-3.3-8.3
		c-0.6-1.8-0.6-4,0.1-5.8c0.4-1.1,2.5-2.7,2.3-4.2c-0.2-1.7-2.5-2.1-4.1-1.8c-3.4,0.7-6.2,5-6,8.9c0.1,2.1,1.8,4,1.1,6
		c-0.4,1.1-2,1.6-2.8,2.2c-1,0.6-2.1,1.4-2.3,2.7c-0.4,2.4,1.5,3.5,1.4,6c-0.1,1.9-1.4,2-2.2,4.3c-0.3,1-0.2,3-0.1,4.9h6.4
		C45.9,318.7,45.5,317.4,45.6,316.2z"/>
	<path class="st0" d="M228,1.9c-2.3-0.1-7,0.6-6.8-1.9h-4.9c-1.3,2.1-3,4.7-0.9,6.4c2.8,1.3,4.1-2.2,7-1.6s4.1,5.5,8.8,4.3
		c0.8-0.2,2.6-0.9,2.7-3C233.9,3.3,230.9,2,228,1.9z"/>
	<path class="st0" d="M221.2,319.5c0.4-2.9,4.4-3.1,4.4-6c0-2.3-8.7-10.5-10.3-7.2c-1.4,3,3.9,6.7,1.9,11.5c-0.1,0.6-0.5,1.3-1,2.2
		h4.9C221.2,319.8,221.2,319.7,221.2,319.5z"/>
	<path class="st0" d="M120.7,0c0,1.5-0.5,3.2-1.6,5.1c-4.8,8.6-11.3,2.8-12.1,9.2c-0.4,2.9,3.6,2.4,3.4,5c-0.5,5.4,1.6,7.1,3.7,6.9
		c3.4-0.2,5.3-5.6,7.4-9.7c3.1-6.1,1.5-9.7,5.4-14.4c0.5-0.7,1.6-1.4,2.8-2.1C129.7,0,120.7,0,120.7,0z"/>
	<path class="st0" d="M137.6,310.9c-2-3.9-8.9,2.2-11.8,1.6c-4-0.8-3.3-3.7-6.5-4.3c-4.7-0.8-1.7-6.2-5.7-5.5
		c-4.8,0.8-6.3,10.1,1.1,11.9c4.1,1,5.8,2.9,5.9,5.4h8.9C133.6,317.6,139.6,314.6,137.6,310.9z"/>
	<path class="st0" d="M143.3,0c-0.5,1.2-0.9,2.4-1.3,3.4c-1,2.5-1.9,4.9-3.4,6.9c-1.9,2.5-3.7,3.7-5.2,5.3c-1.4,1.6-3.6,3.6-4.2,6.6
		c-0.6,3.2,0.7,6.2,2.8,6.2c2.5,0,3.5-4.6,5-6.9c1.3-2,4.1-4.3,5.5-6.6c1.7-2.6,2-5.4,3.1-9.1c0.5-1.5,1.9-3.8,2.7-5.9L143.3,0
		L143.3,0z"/>
	<path class="st0" d="M148.4,316.9c-0.4-1.1-1.5-1-2.1-0.9c-1.3,0.3-2.3,2.1-3.1,4h4.9C148.6,318.8,148.8,317.7,148.4,316.9z"/>
	<path class="st0" d="M248,0c-0.4,1.4-0.6,2.9-0.9,3.8c-0.5,1.7-1.6,3.8-3.1,5.3c-1.3,1.4-3.6,2.5-4.4,4.1c-3,5.4,1.5,10,0.9,16.1
		c-0.2,2.6-1.7,5.5-0.6,8c1.7-0.2,2.8-1.8,3.8-3.1c1.5-1.9,3.5-3.8,3.5-7.2c0-4.1-3.3-7.2-2.4-11.1c0.7-2.9,4.4-2.8,6.6-4.3
		c2.6-1.7,4.5-5.6,4.4-9.2c0-0.8-0.1-1.7-0.3-2.5L248,0L248,0z"/>
	<path class="st0" d="M251.6,315.8c-2.1-0.3-3,1.9-3.6,4.2h7.5C255,317.9,253.7,316.1,251.6,315.8z"/>
	<path class="st0" d="M266.3,51.2c-1.4,0.9-3.8-2-4.1-3.9c-0.6-3.7,2.9-7.1,2-11.4c-0.6-2.8-3.6-4.6-3.3-7.6c0.3-3,2.8-2.2,4.5-4.1
		c3.5-3.8-1.1-9.9,0.8-14.4c0.6-1.3,2.3-3.1,3.5-3.3c4.5-0.7,1.7,4.1,1.4,6.1c-0.4,2.1,0.4,3.8,0.4,5.6c0,1.9-0.6,3.6-0.9,5
		c-0.4,1.9-1.6,3.4-1.4,5.8c0.2,1.8,1.3,4.1,2.3,5.4c1.4,1.8,4,2.7,5.3,4.3c1.1,1.3,2.1,4.5,0.7,5.4c-1.9,1.3-4.2-1.2-6.6-1.1
		C266.7,43.4,267.7,50.3,266.3,51.2z"/>
	<path class="st0" d="M219.1,134.1c-0.2-3.3-2.4-6.9-6.1-6.2c-0.1,0-0.1,0-0.2,0c-0.1,0-0.3,0.1-0.4,0.1c-3.1,1.3-1.9,4.2-1.8,6.9
		c0.1,2.4-0.7,4.8-0.9,7.1c-0.2,3-1.7,4.3-3.7,6.3c-1.2,1.2-1.7,3.2-2.9,4.2c-2.5,2.2-5.5-1.5-6.6-3.3c-1.2-2.2-3.6-3.3-5.6-1.4
		c-2.3,2.2-0.6,6,1.6,7.7c3,2.4,6.5,3.6,10.3,3.1c2.3-0.3,4.7-1.1,5.7-3.4c1-2.3,0.2-3.7,2.7-5.4c1.5-1,3-1.6,3.9-3.2
		c1.2-2.1,1.2-4.6,2-6.9C217.9,137.8,219.2,136.3,219.1,134.1z"/>
	<g>
		<path class="st0" d="M267.8,219.3c-3.6-1.2-4.1-4.5-6.6-3.9c-2.6,0.6-1.4,4.8,0.9,6.6c5.2,4.1,10.9,4.8,14,3.9
			c4.3-1.3,6.6-3,7.4-9.3c0.3-1.9,0.3-4.6-1.8-5c-2.7-0.6-2.2,2.7-3.2,4.6C276.8,219.6,273.2,221.1,267.8,219.3z"/>
	</g>
	<g>
		<path class="st0" d="M263.6,259.1c-0.9-4-5.1-4.1-7-9.1c-1.3-3.3-1.8-5.4-2.3-6.5s-1.9-5.9-2-9.1c-0.1-3.5-0.3-5.9,1.1-10.5
			c3.3-11.3-5.4-15.4-7.3-13.7c-2.7,2.6,4.4,3.9,0.1,17.9c-0.6,2-1.1,4.3-1.2,6.2c-0.3,3.9,1.2,6.3,0.7,10.2
			c-0.5,3.7-3.2,7.1-5.6,8.7c-1.2,0.9-3.3,1.7-4.7,2.6c-1.4,0.8-3.8,2.2-3.4,4.1c0.4,1.7,1.6,2.2,4.1,2.1c5-0.3,7.9-6.2,11.5-6.9
			c3.4-0.7,5.1,1,7,2.6c1.6,1.3,2.7,2.5,2,6.3c-1.1,5.9-7,5.6-6.5,9.3c0.7,4.8,2.5,8.9,4.7,11c0.5,0.5,1.9,2,3,1.9
			c1.6-0.1,1.8-1.9,1.9-2.3c0.3-2.5-1.2-4.5-1-9.5C259,269.2,264.4,262.4,263.6,259.1z"/>
	</g>
	<g>
		<path class="st0" d="M247.2,197.2c-0.3-2-2.9-4-4.9-3.8c-1.7,0.2-7.6,4.6-10,5.4c-3.2,1.1-4,1.9-5.4,4.7c-1.7,3.6-5,5.3-7.1,8.3
			c-1.7,2.6-0.2,4.7,2.8,3.2c1.5-0.8,1.1-2.1,2.1-2.8c0.8-0.6,2.3-0.4,3.2-1.1c4.3-2.8-0.4-7.2,6.4-9.2c3.2-0.9,9.1-0.8,9.8-0.8
			C246.1,201,247.5,199.4,247.2,197.2z"/>
	</g>
	<g>
		<path class="st0" d="M285.8,152.8c-0.1-0.8-3.2-4.4-4-5.4c-1.9-2.5-3.3-6.5-6.5-7.3c-2.3-0.7-7.6,1.5-6.2,4.6
			c0.8,1.7,3.4,1.3,4.8,1.9c2.3,0.8,1.6,2.3,0.9,4.1c-0.8,2-1.4,3-0.2,4.8c0.8,3.5-3.9,5.4-6.7,10.6c-3.2,5.7-1.3,11.5-0.4,14.4
			s3.2,6.6,5.7,6.2c0.9-0.1,2.1-0.7,2.3-1.6c0.2-0.6,0-1.3-0.2-1.8c-2-6.3-2.8-16.6,6.5-24.6c1.6-1.2,2.7-2.1,3.1-2.6
			C285.8,155.2,286.1,154.5,285.8,152.8z"/>
	</g>
	<g>
		<path class="st0" d="M304.3,261.4c-2.1-0.6-4.1-1-6.2-0.1c-1.3,0.5-2.3,1.5-2.3,3c0.1,1.6,1.6,2.7,2.7,3.5c2,1.4,6.3,4,3.4,6.6
			c-1.2,1.1-4.4,2.8-3.4,4.9c0.6,1.2,1.8,1.5,1.6,3.2c-0.1,1.3-1.2,2.2-0.9,3.6c0.5,2.7,5.4,4.2,6.6,1.1c0.9-2.5-2.6-6.6,0.4-8.2
			c1.7-1,3.7-1.2,5.3-2.3c1.6-0.9,2.8-2.4,3.6-4c2.1-4.2-3.5-7-6.5-8.8C307.4,263,305.8,261.8,304.3,261.4z"/>
	</g>
	<path class="st0" d="M320,162.2c-0.5-0.2-1.1-0.4-1.7-0.4c-1.4,0-3.1,1.6-3,3.1c0.2,2.6,1.7,2.7,4.7,3.3V162.2z"/>
	<path class="st0" d="M6.3,170.2c5.8,2.7,9.8,1,11.4-0.1c1.8-1.3,1.6-4.9,3.7-6.4c1.9-1.3,3.2-3.6,2-5c-0.7-0.8-2.1-0.8-2.8-0.8
		c-3,0.1-4.5,0.3-7.3,0.6c-1.5,0.1-3.8,0.6-6.8,3c-3.1,2.4-4.8,1.3-6.4,0.6v6C1.6,168.5,3.7,169,6.3,170.2z"/>
	<path class="st0" d="M315,108.5c-0.6-2.5,0.2-6.6,5-8.4v-5.3c-1.8,0.6-3.3,1.1-4.1,1.3c-4.7,1.4-6.2,4.2-6.8,5.9
		c-0.6,1.8,0.6,6-0.4,8.4c-0.6,1.4-2.3,2.4-3.8,2.6c-3.4,0.5-6.7-0.1-6,4.5c0.5,3.4,4.5,5.1,4.8,9.4c0.2,3-1,6.6,1.8,6.8
		c5.6,0.3,0.7-11.5,4.9-12.9c1.4-0.5,3.6,0,4.6-0.3c2.7-0.9,2.1-4.1,1.4-7.1C316,111.6,315.7,111.2,315,108.5z"/>
	<path class="st0" d="M0.7,99.9c1.7-0.6,13.5-1.1,9.6-6.2c-1.2-1.4-6.4,0-10.3,1.2v5.3C0.2,100,0.5,99.9,0.7,99.9z"/>
	<path class="st0" d="M320,255.3c-0.3-0.4-0.5-0.9-0.7-1.2c-1.4-2.4-5-2.3-5.3,0.4c-0.5,3.7,3.4,7.3,6,9.4V255.3z"/>
	<path class="st0" d="M2,265.6c3.7,3.4,8.4,4,8.3,9.7c-0.3,2.5,0.3,5.2,2.7,5.2c2.9,0,3-3,6.1-3c2.5,0,3.9,1.5,5.2,2.6
		c1.1,1,2.8,2.7,2.8,5.1c0,2.7-2.6,4-2.2,7c0.2,1.3,1.6,2.8,3.1,3c4,0.4,7-4.7,8-7.2c1.9-4.6-0.7-8.8-3.5-11
		c-2.1-1.6-7.2-3.4-7.9-6.5c-0.7-3.8,0.7-3,2.1-4.9c2.1-2.6,1.9-5.3-1.1-7c-1.2-0.7-2.6-0.2-3.4,1.2c-0.9,1.6,0.4,3-2.1,6.5
		c-2.4,3.2-12.8-2.3-15.6-4.6c-1.4-1.2-3.3-4.3-4.7-6.6v8.6C0.9,264.7,1.7,265.3,2,265.6z"/>
	<g>
		<path class="st0" d="M52.3,193.4c-0.9-0.5-1.9-1.1-2.6-1.9c-1.4-1.7-0.7-5-0.9-7.2c-0.3-2.7-2.1-4.8-4.9-4.2
			c-4.3,1-4.6,6.4-5.6,11.3c-1.7,3.3-8.7,11.1-8.7,16.4c0,4.2,1,9.2-1.1,14.1c-2.2,4.9-7,5.6-10.1,11.1c-4.5,8.2-6.5,13.2-7.4,15.7
			s-1.8,7.3,3.3,7.8c1.7,0.2,3.5-0.9,4.7-3.9c1.8-4.4,0.1-11.7,5.6-12.7c2.9-0.5,0.4,7.3,4.1,7.3c4.3,0,6.6,1.6,8.2,0.7
			c2.9-1.7,0.8-6.1-0.6-7.9c-1.2-1.5-4.3-0.9-4.4-5.2c-0.1-7.6,5-9,5-15.1c0-2.5-1.1-6.6-1.1-8.5c0-4.5,3.5-9.2,6.6-11.6
			c1.7-0.9,3.4-1.9,4.7-2.2c2.5-0.5,7.2,1.1,7.3-1.9C54.4,194.3,53,193.9,52.3,193.4z"/>
	</g>
	<path class="st0" d="M300.4,305.2c-0.3,2.5-3.7,5-3,7.8c0.6,2.3,3.4,3,5.2,1.8c0.2-0.1,0.3-0.2,0.5-0.3l0,0
		c1.5-0.8,2.6,1.9,3.2,5.5h3.3c-0.6-2.1-0.8-4.2-0.3-6.5c0.6-2.6,4.4-8,4.1-10.7l0,0c-0.1-2.3-2.4-2-4.6-2.2
		c-2.3-0.3-3.5-0.3-7.3-2.5c-2.3-1.4-6.3-7.1-9.5-7.1c-2,0-2.9,1-3.2,1.8c-0.5,1.3,0,2.8,1.1,3.8
		C291.8,298.4,301.1,299.9,300.4,305.2z"/>
	<path class="st0" d="M306.8,10.3L306.8,10.3c-0.2,1-0.3,2.2-0.6,3.4c-1,3.3-5,5.8-4.6,9.2c0.1,1.1,1.3,2,2,2c2,0.2,3.9-2,5.6-3.8
		s3.5-3.5,4.3-5c1.1-1.9,1-4.4,0.1-6.2c-1.5-3.7-3.1-6.8-3.9-9.9h-3.3C306.9,3.4,307,7.5,306.8,10.3z"/>
	<path class="st0" d="M172.6,280c1,2.2,0.9,6,1.2,9.2c0.3,3.3,1.3,6.8,0.9,9.6c-0.4,2.9-3.5,5.3-4.2,8.8c-0.5,2.6-1.1,8.2-1,12.4
		h6.5c0.1-3.5,0.4-6.3,0.9-7.5c2.1-5,2.8-9.2,3.7-12.2c0.4-1.6,1.2-3.1,1.5-4.9c0.5-3.3-0.3-6-0.9-9.6c-0.6-3.2-0.6-6.4-1.5-8.4
		c-1.5-3.1-4.4-4.1-5.4-6.8c-0.8-2-0.3-5.6-2.8-4.9c-2.4,0.7-2.6,7.2-1.4,10C170.6,277.2,171.8,278.3,172.6,280z"/>
	<path class="st0" d="M170,3.6c1.1,3.6,1.8,6.8,2.4,9.1c0.7,2.7,1.7,5.9,1.5,8.7c-0.3,3.1-2.6,4.5-3.9,6.6c-1.2,1.9-4,6.5-0.3,7.5
		c2.3-0.3,2.5-3.3,3.4-5.3s2.5-3.6,3.4-5.3c1.1-1.9,2-5.2,2-7.2c0-3.1-1.6-5.9-2.2-9.1c-0.3-2.9-0.4-6-0.3-8.7h-6.5
		C169.6,1.4,169.8,2.7,170,3.6z"/>
	<path class="st0" d="M7.4,320c-1.3-3.5,1.6-9.2,9.8-8.2c3.8,0.4,7.9,0.5,7.9-3.1c0-3.2-4.5-3.7-7.2-5.8c-2.4-1.9-2.7-4.9-6.6-4.3
		c-2.3,0.4-3.6,1.8-4.2,3.6v-0.1c-1.7,5-6.6,12.3-5.9,18h6.2V320z"/>
	<path class="st0" d="M5.1,5.7c3.8,2.4,8,1.5,9,4.7c0.6,1.9-0.8,3.6-1.8,5.2C10.5,18.5,6.6,20,5.1,23c-0.4,0.9-1.5,3.9,0.3,4.3
		c2.4,0.5,2.6-3.3,5.3-3c1.8,0.2,2.4,3,2.2,5.4c-0.2,2.5-1.5,6.2-2.3,8.1c-0.8,2-2,2.6-2,4.6c-0.1,2.2,1.6,5.7,4.3,5.4
		c2.3-0.2,3.1-4.3,3.1-7c0-6.8,1.1-10.7,7-11.6c1.3-0.2,3-0.1,4.5-0.3c1.4-0.2,2.8-0.8,4.2-0.5c1.4,0.2,2.6,2.4,4.1,2.2
		c2.9-0.5-0.3-5.5-0.3-5.6c-2.2-3-4.5-5.5-9.2-5.4c-3.2,0.1-4.8,2-7.2,1.9c-2.5-0.1-5-2.1-4.5-4.7c0.5-2.4,4.6-2.2,5-5.7
		c0.3-2.2-0.2-4-1.1-4.8c-0.7-0.6-1.7-1.1-5.3-1.7C10.9,4.2,8.5,2.8,7.5,0l0,0H1.3C1.5,2.2,2.6,4.2,5.1,5.7z"/>
	<path class="st0" d="M266.8,314c3.4,1.2,5.2-3.1,8.5-2.7l0,0c1,0.6,3.5,1,6.1,6.5c0.3,0.7,0.6,1.4,0.9,2.1h7.7
		c-0.4-1.6-1-3-1.7-4.2c-1-1.8-1.6-3.1-1.6-5.1c-0.1-1,0.1-2.1,0-3.2c0.2-0.9,0.3-1.9,0.2-2.9c-0.3-2-1.6-2.9-3.1-4.1
		s-2.5-2.5-4.3-2c-1.7,0.7-0.8,2.6-2,3.4c-1.3,0.8-3.6-0.5-5,0.8C270.6,303.5,262.3,312.4,266.8,314z"/>
	<path class="st0" d="M283.6,11.1c-0.8,4.3-1.4,8.7-0.1,10.9c1.2,2.2,4.6,4.7,6,6c2.1,1.9,3.9,4.6,3.1,7.7c-0.4,1.5-1.9,2.8-1.9,4.7
		c0,1.8,1.9,4.6,3.3,4.3c1.2-0.3,1.2-3.3,1.8-4.5c0.7-1.5,2.4-3,2.6-4.9c0.2-2.4-0.5-4-1.6-5.9c-1.2-2.1-2.5-3.5-4.1-5.4
		c-1.1-1.3-4.5-5.7-2.6-13.7c1-3.3,0.8-7.2-0.1-10.5h-7.7C283.5,3.3,284.3,7.4,283.6,11.1z"/>
</g>
</svg>
