<?xml version="1.0" encoding="utf-8"?>
<!-- Generator: Adobe Illustrator 21.1.0, SVG Export Plug-In . SVG Version: 6.00 Build 0)  -->
<svg version="1.1" id="Livello_1" xmlns="http://www.w3.org/2000/svg" xmlns:xlink="http://www.w3.org/1999/xlink" x="0px" y="0px"
	 viewBox="0 0 165 165" style="enable-background:new 0 0 165 165;" xml:space="preserve">
<style type="text/css">
	.st0{fill:#FFFFFF;}
</style>
<g>
	<path class="st0" d="M47.1,27.6c0-0.1,0-0.2,0.1-0.2l0.2-0.1c0,0,0.1,0,0.2,0l3.8,3.3l0,0l0.7-5c0-0.1,0.1-0.1,0.1-0.2l0.2-0.1
		c0.1,0,0.2,0,0.2,0.1l3.5,6.1c0.1,0.1,0,0.2-0.1,0.3l-1.1,0.4c-0.1,0-0.2,0-0.2-0.1L53,29.5l0,0l-0.5,3.7c0,0.1-0.1,0.1-0.1,0.2
		l-0.2,0.1c-0.1,0-0.2,0-0.2,0l-2.8-2.5l0,0l0.7,3.1c0,0.1,0,0.2-0.1,0.2l-1.1,0.4c-0.1,0-0.2,0-0.3-0.1L47.1,27.6z"/>
	<path class="st0" d="M57.8,31.2l1.5-7.5c0-0.1,0.1-0.1,0.1-0.2l0.1,0c0.1,0,0.2,0,0.2,0.1l4.8,5.9c0.1,0.1,0,0.3-0.1,0.3l-1.1,0.3
		c-0.2,0-0.3,0-0.4-0.2l-0.6-0.7l-2.7,0.7l-0.2,0.9c0,0.1-0.1,0.3-0.3,0.3l-1.1,0.3C57.9,31.4,57.8,31.3,57.8,31.2z M61.4,28
		l-1.2-1.5l0,0l-0.3,1.8L61.4,28z"/>
	<path class="st0" d="M66.5,23.7L65,23.9c-0.1,0-0.2-0.1-0.2-0.2l-0.2-1.1c0-0.1,0-0.2,0.2-0.2l4.5-0.7c0.1,0,0.2,0.1,0.2,0.2
		l0.2,1.1c0,0.1,0,0.2-0.2,0.2l-1.4,0.2l0.9,5.4c0,0.1-0.1,0.2-0.2,0.2l-1.2,0.2c-0.1,0-0.2-0.1-0.2-0.2L66.5,23.7z"/>
	<path class="st0" d="M72.6,21.5c0-0.1,0.1-0.2,0.2-0.2l3.1-0.2c1.2-0.1,2.3,0.8,2.4,2c0.1,0.9-0.5,1.7-1.4,2.2l1.6,2.5
		c0.1,0.1,0,0.3-0.2,0.3L77,28.1c-0.1,0-0.1,0-0.2-0.1l-1.6-2.6l-0.7,0.1l0.2,2.6c0,0.1-0.1,0.2-0.2,0.2l-1.2,0.1
		c-0.1,0-0.2-0.1-0.2-0.2L72.6,21.5z M75.9,24.1c0.4,0,0.7-0.4,0.7-0.9s-0.4-0.7-0.8-0.7l-1.5,0.1l0.1,1.6L75.9,24.1z"/>
	<path class="st0" d="M81.5,21c0-0.1,0.1-0.2,0.2-0.2l1.2,0c0.1,0,0.2,0.1,0.2,0.2l0,6.8c0,0.1-0.1,0.2-0.2,0.2l-1.2,0
		c-0.1,0-0.2-0.1-0.2-0.2L81.5,21z"/>
	<path class="st0" d="M87.6,21c0-0.1,0.1-0.2,0.2-0.1l0.2,0c0.1,0,0.1,0.1,0.2,0.1l2,4.6l0,0l2.7-4.2c0-0.1,0.1-0.1,0.2-0.1l0.2,0
		c0.1,0,0.2,0.1,0.2,0.2l0.6,7c0,0.1-0.1,0.2-0.2,0.2l-1.2-0.1c-0.1,0-0.2-0.1-0.2-0.2l-0.2-3.2l0,0l-2,3.2c0,0.1-0.1,0.1-0.2,0.1
		l-0.2,0c-0.1,0-0.1-0.1-0.2-0.1l-1.5-3.5l0,0l-0.7,3.1c0,0.1-0.1,0.2-0.2,0.1L86.1,28c-0.1,0-0.2-0.1-0.2-0.2L87.6,21z"/>
	<path class="st0" d="M101.3,22.6c2,0.4,3.3,2.3,2.9,4.4c-0.4,2-2.3,3.3-4.3,2.9c-2-0.4-3.3-2.3-2.9-4.3
		C97.3,23.5,99.3,22.2,101.3,22.6z M100.1,28.2c1.1,0.2,2.2-0.5,2.4-1.6c0.2-1.1-0.5-2.2-1.6-2.4c-1.1-0.2-2.2,0.5-2.4,1.6
		C98.3,26.9,99,28,100.1,28.2z"/>
	<path class="st0" d="M108.2,24.3c0-0.1,0.1-0.1,0.2-0.1l0.2,0.1l2.7,5l0,0l1.1-3.5c0-0.1,0.1-0.2,0.2-0.1l1.2,0.4
		c0.1,0,0.2,0.1,0.1,0.2l-2.1,6.6c0,0.1-0.1,0.1-0.2,0.1l-0.2,0c0,0-0.1-0.1-0.1-0.1l-2.6-5.1l0,0l-1.1,3.6c0,0.1-0.1,0.2-0.2,0.1
		l-1.2-0.4c-0.1,0-0.2-0.1-0.1-0.2L108.2,24.3z"/>
	<path class="st0" d="M117.6,27.7c0-0.1,0.2-0.1,0.3-0.1l1.1,0.5c0.1,0,0.1,0.2,0.1,0.3l-2.6,6.3c0,0.1-0.2,0.1-0.3,0.1l-1.1-0.5
		c-0.1,0-0.1-0.2-0.1-0.3L117.6,27.7z"/>
</g>
<path class="st0" d="M82.5,6C124.7,6,159,40.2,159,82.5S124.7,159,82.5,159S6,124.7,6,82.5S40.2,6,82.5,6 M82.5,0C37,0,0,37,0,82.5
	S37,165,82.5,165S165,128,165,82.5S128,0,82.5,0L82.5,0z"/>
<g>
	<path class="st0" d="M37.5,101c-0.1-0.1,0-0.3,0.2-0.3h1.3c0.1,0,0.1,0.1,0.2,0.1l1.6,3.5h0.1l1.6-3.5c0,0,0.1-0.1,0.2-0.1h1.3
		c0.1,0,0.2,0.1,0.2,0.3l-3,6.5c0,0.1-0.1,0.1-0.2,0.1h-0.1c-0.1,0-0.1,0-0.2-0.1L37.5,101z"/>
	<path class="st0" d="M46.9,101c0-0.1,0.1-0.2,0.2-0.2h1.2c0.1,0,0.2,0.1,0.2,0.2v6.4c0,0.1-0.1,0.2-0.2,0.2h-1.2
		c-0.1,0-0.2-0.1-0.2-0.2V101z"/>
	<path class="st0" d="M52.2,101c0-0.1,0.1-0.2,0.2-0.2h2.4c1.9,0,3.4,1.5,3.4,3.4c0,1.9-1.5,3.4-3.4,3.4h-2.4
		c-0.1,0-0.2-0.1-0.2-0.2V101z M54.6,106.1c1.1,0,1.9-0.9,1.9-2c0-1.1-0.8-2-1.9-2h-0.9v3.9H54.6z"/>
	<path class="st0" d="M61.4,101c0-0.1,0.1-0.2,0.2-0.2h4c0.1,0,0.2,0.1,0.2,0.2v1.1c0,0.1-0.1,0.2-0.2,0.2H63v1.2h2.2
		c0.1,0,0.2,0.1,0.2,0.2v1.1c0,0.1-0.1,0.2-0.2,0.2H63v1.3h2.7c0.1,0,0.2,0.1,0.2,0.2v1.1c0,0.1-0.1,0.2-0.2,0.2h-4
		c-0.1,0-0.2-0.1-0.2-0.2V101z"/>
	<path class="st0" d="M72.2,100.7c1.9,0,3.5,1.6,3.5,3.5c0,1.9-1.5,3.5-3.5,3.5c-1.9,0-3.5-1.5-3.5-3.5
		C68.7,102.2,70.3,100.7,72.2,100.7z M72.2,106.1c1.1,0,1.9-0.9,1.9-1.9c0-1.1-0.9-1.9-1.9-1.9c-1.1,0-1.9,0.9-1.9,1.9
		C70.3,105.2,71.2,106.1,72.2,106.1z"/>
	<path class="st0" d="M84.4,103.9L84.4,103.9l-0.2-0.2c-0.4-0.4-0.6-0.8-0.6-1.4c0-0.7,0.6-1.6,1.9-1.6c1.1,0,1.9,0.7,1.9,1.6
		c0,1.1-1.1,1.6-1.1,1.7l0.9,0.9c0.1-0.2,0.3-0.5,0.3-0.7c0.1-0.2,0.1-0.4,0.4-0.3l0.7,0.3c0.3,0.1,0.2,0.3,0.1,0.4
		c-0.2,0.7-0.6,1.2-0.6,1.2l0.8,0.8c0.1,0.1,0.2,0.2,0,0.4l-0.5,0.6c-0.1,0.1-0.3,0.1-0.4,0l-0.6-0.6c0,0-0.7,0.7-2.1,0.7
		c-1.2,0-2.1-0.8-2.1-1.8C83.1,104.4,84.4,103.9,84.4,103.9z M85.4,106.4c0.8,0,1-0.5,1-0.5l-1.3-1.3c0,0-0.7,0.2-0.7,1
		C84.5,106.1,84.9,106.4,85.4,106.4z M86.2,102.4c0-0.3-0.3-0.6-0.7-0.6c-0.4,0-0.6,0.2-0.6,0.5c0,0.3,0.2,0.5,0.4,0.8l0.2,0.2
		C85.5,103.2,86.2,102.9,86.2,102.4z"/>
	<path class="st0" d="M96.4,101c0-0.1,0.1-0.2,0.2-0.2h4c0.1,0,0.2,0.1,0.2,0.2v1.1c0,0.1-0.1,0.2-0.2,0.2h-2.7v1.4h2.2
		c0.1,0,0.2,0.1,0.2,0.2v1.1c0,0.1-0.1,0.2-0.2,0.2h-2.2v2.4c0,0.1-0.1,0.2-0.2,0.2h-1.1c-0.1,0-0.2-0.1-0.2-0.2V101z"/>
	<path class="st0" d="M107,100.7c1.9,0,3.5,1.6,3.5,3.5c0,1.9-1.5,3.5-3.5,3.5c-1.9,0-3.5-1.5-3.5-3.5
		C103.5,102.2,105,100.7,107,100.7z M107,106.1c1.1,0,1.9-0.9,1.9-1.9c0-1.1-0.9-1.9-1.9-1.9c-1.1,0-1.9,0.9-1.9,1.9
		C105,105.2,105.9,106.1,107,106.1z"/>
	<path class="st0" d="M114.6,102.2h-1.4c-0.1,0-0.2-0.1-0.2-0.2V101c0-0.1,0.1-0.2,0.2-0.2h4.3c0.1,0,0.2,0.1,0.2,0.2v1.1
		c0,0.1-0.1,0.2-0.2,0.2h-1.4v5.2c0,0.1-0.1,0.2-0.2,0.2h-1.2c-0.1,0-0.2-0.1-0.2-0.2V102.2z"/>
	<path class="st0" d="M123.7,100.7c1.9,0,3.5,1.6,3.5,3.5c0,1.9-1.5,3.5-3.5,3.5c-1.9,0-3.5-1.5-3.5-3.5
		C120.2,102.2,121.8,100.7,123.7,100.7z M123.7,106.1c1.1,0,1.9-0.9,1.9-1.9c0-1.1-0.9-1.9-1.9-1.9c-1.1,0-1.9,0.9-1.9,1.9
		C121.8,105.2,122.6,106.1,123.7,106.1z"/>
</g>
<g>
	<path class="st0" d="M128.3,92.5H36.7c-0.6,0-1-0.4-1-1s0.4-1,1-1h91.6c0.6,0,1,0.4,1,1S128.8,92.5,128.3,92.5z"/>
</g>
<g>
	<g>
		<path class="st0" d="M88.2,144.6H76.8c-0.2,0-0.4-0.1-0.4-0.3l-1.9-10.8c0-0.1,0-0.2,0.1-0.3c0.1-0.1,0.2-0.2,0.3-0.2h15.2
			c0.1,0,0.2,0.1,0.3,0.2c0.1,0.1,0.1,0.2,0.1,0.3l-1.9,10.8C88.6,144.5,88.4,144.6,88.2,144.6z M77.2,143.8h10.7l1.8-10H75.4
			L77.2,143.8z"/>
	</g>
	<g>
		<path class="st0" d="M89.4,129.7H75.6v-0.4c0-4.2,3.1-7.7,6.9-7.7c3.8,0,6.9,3.4,6.9,7.7V129.7z M76.5,128.9h12.1
			c-0.2-3.6-2.8-6.4-6-6.4C79.3,122.5,76.7,125.3,76.5,128.9z"/>
	</g>
	<g>
		<path class="st0" d="M77,125.9c-0.1,0-0.2,0-0.2-0.1l-2.1-1.5c-0.2-0.1-0.2-0.4-0.1-0.6c0.1-0.2,0.4-0.2,0.6-0.1l2.1,1.5
			c0.2,0.1,0.2,0.4,0.1,0.6C77.3,125.9,77.1,125.9,77,125.9z"/>
	</g>
	<g>
		<path class="st0" d="M79.4,123.4c-0.1,0-0.3-0.1-0.3-0.2l-1.6-2.2c-0.1-0.2-0.1-0.5,0.1-0.6c0.2-0.1,0.5-0.1,0.6,0.1l1.6,2.2
			c0.1,0.2,0.1,0.5-0.1,0.6C79.5,123.4,79.4,123.4,79.4,123.4z"/>
	</g>
	<g>
		<path class="st0" d="M82.5,122.5c-0.2,0-0.4-0.2-0.4-0.4v-2.4c0-0.2,0.2-0.4,0.4-0.4c0.2,0,0.4,0.2,0.4,0.4v2.4
			C82.9,122.3,82.7,122.5,82.5,122.5z"/>
	</g>
	<g>
		<path class="st0" d="M80,127.6c-0.1,0-0.3-0.1-0.3-0.2l-1-1.3c-0.1-0.2-0.1-0.5,0.1-0.6c0.2-0.1,0.5-0.1,0.6,0.1l1,1.3
			c0.1,0.2,0.1,0.5-0.1,0.6C80.1,127.6,80.1,127.6,80,127.6z"/>
	</g>
	<g>
		<path class="st0" d="M91.6,133.8H73.3c-0.2,0-0.4-0.2-0.4-0.4v-4.1c0-0.2,0.2-0.4,0.4-0.4h18.3c0.2,0,0.4,0.2,0.4,0.4v4.1
			C92.1,133.6,91.9,133.8,91.6,133.8z M73.8,133h17.5v-3.2H73.8V133z"/>
	</g>
	<g>
		<path class="st0" d="M88,125.9c-0.1,0-0.3-0.1-0.3-0.2c-0.1-0.2-0.1-0.5,0.1-0.6l2.1-1.5c0.2-0.1,0.5-0.1,0.6,0.1
			c0.1,0.2,0.1,0.5-0.1,0.6l-2.1,1.5C88.2,125.9,88.1,125.9,88,125.9z"/>
	</g>
	<g>
		<path class="st0" d="M85.6,123.4c-0.1,0-0.2,0-0.2-0.1c-0.2-0.1-0.2-0.4-0.1-0.6l1.6-2.2c0.1-0.2,0.4-0.2,0.6-0.1
			c0.2,0.1,0.2,0.4,0.1,0.6l-1.6,2.2C85.9,123.4,85.8,123.4,85.6,123.4z"/>
	</g>
	<g>
		<path class="st0" d="M81.7,125.8c-0.1,0-0.3-0.1-0.4-0.2c-0.1-0.2-0.1-0.5,0.1-0.6l1.4-0.9c0.2-0.1,0.5-0.1,0.6,0.1
			c0.1,0.2,0.1,0.5-0.1,0.6l-1.4,0.9C81.9,125.8,81.8,125.8,81.7,125.8z"/>
	</g>
	<g>
		<path class="st0" d="M86.1,127.9c-0.1,0-0.1,0-0.2,0l-1.5-0.8c-0.2-0.1-0.3-0.4-0.2-0.6c0.1-0.2,0.4-0.3,0.6-0.2l1.5,0.8
			c0.2,0.1,0.3,0.4,0.2,0.6C86.4,127.8,86.2,127.9,86.1,127.9z"/>
	</g>
</g>
<path class="st0" d="M54.2,62.1c0,1.2-0.4,2.5-1.1,4.1c-0.6,1.1-1.3,1.5-2.4,1.3c-0.9-0.2-1.3-0.7-1.3-1.6c0-0.3,0.1-0.6,0.3-1
	c1.2-2.3,1.4-3.9-0.7-3.9c-0.8,0-1.6,0.3-2.3,1c-1.4,1.3-1.6,2.1-2.6,4.2l-3.3,6.9c-0.6,1.2-0.9,2.3-0.9,3.3c0,2.1,1.3,3.1,3.8,3.1
	c3.3,0,6.2-2.6,7.6-5.1c0.6-0.9,1.3-1.3,2.1-0.8c0.9,0.4,1.2,1.1,0.8,2.1c-0.8,1.9-2.2,3.5-4.2,5c-2,1.4-4,2.1-6.3,2.1
	c-4.3,0-7.4-2.1-7.4-6.1c0-1.3,0.4-3,1.4-5l3.4-7.2c2.1-4.6,4.8-6.9,7.9-6.9C52.2,57.7,54.2,59.3,54.2,62.1z"/>
<path class="st0" d="M60.8,80.6c-1.4,1.4-3,2.2-4.9,2.2c-3.5,0-5.5-1.7-5.5-4.8c0-1.1,0.3-2.3,0.9-3.5l4.7-10
	c2.2-4.6,4.9-6.9,8.1-6.9c1.7,0,3.5,0.8,4,2c0.4-1,1.1-1.4,2-1.4c0.8,0.1,1.2,0.6,1.2,1.4c0,0.2-0.1,0.4-0.1,0.7l-7,15.4
	c-0.4,0.9-0.6,1.6-0.6,2.3c0,0.9,0.6,1.4,1.8,1.4c1.3,0,2.5-0.6,3.5-2.1c1-1.4,1-1.6,1.7-2.9c0.5-0.9,1.2-1.2,2.1-0.8
	c0.9,0.3,1.3,1,0.9,2c-0.7,1.7-1.8,3.3-3.3,4.8c-1.4,1.5-3.1,2.3-4.9,2.3C63.1,82.8,61.6,82.1,60.8,80.6z M65.7,64.7
	c0.8-1.6,0.8-3.7-1.6-3.7c-1.3,0-2.5,0.7-3.5,2.2c-0.9,1.5-0.9,1.6-1.7,3.1L54.4,76c-0.9,1.6-0.5,3.6,1.6,3.6s3.8-2.2,4.8-4.3
	L65.7,64.7z"/>
<path class="st0" d="M88.1,62.1c0,1.2-0.4,2.5-1.1,4.1c-0.6,1.1-1.3,1.5-2.4,1.3c-0.9-0.2-1.3-0.7-1.3-1.6c0-0.3,0.1-0.6,0.3-1
	C84.9,62.6,85,61,83,61c-0.8,0-1.6,0.3-2.3,1c-1.4,1.3-1.6,2.1-2.6,4.2l-3.3,6.9c-0.6,1.2-0.9,2.3-0.9,3.3c0,2.1,1.3,3.1,3.8,3.1
	c3.3,0,6.2-2.6,7.6-5.1c0.6-0.9,1.3-1.3,2.1-0.8c0.9,0.4,1.2,1.1,0.8,2.1c-0.8,1.9-2.2,3.5-4.2,5c-2,1.4-4,2.1-6.3,2.1
	c-4.3,0-7.4-2.1-7.4-6.1c0-1.3,0.4-3,1.4-5l3.4-7.2c2.1-4.6,4.8-6.9,7.9-6.9C86.1,57.7,88.1,59.3,88.1,62.1z"/>
<path class="st0" d="M98,61.3h-1.8c-0.8,0-1.4,0.4-1.8,1.1l-6,13.4c-0.8,2-0.4,3.7,1.7,3.7c1.3,0,2.5-0.6,3.5-2.1
	c1-1.4,1-1.6,1.7-2.9c0.5-0.9,1.2-1.2,2.1-0.8c0.9,0.3,1.3,1,0.9,2c-0.7,1.6-1.8,3.1-3.3,4.6c-1.4,1.4-3.1,2.3-4.9,2.5
	c-3.5,0.3-5.7-1.5-5.7-4.7c0-0.9,0.3-2.1,0.9-3.5l5.6-12.2c0.3-0.8,0.2-1.1-0.3-1.1c-0.9,0-1.4-0.4-1.5-1.3
	c-0.1-0.9,0.4-1.5,1.2-1.8c0.3-0.1,0.6-0.2,0.9-0.2h0.3c0.9,0,1.4-0.4,1.8-1.1l2.4-5c1.1-2.3,4.4-1.4,3.1,1.3l-1.8,3.7
	c-0.3,0.8-0.1,1.1,0.8,1.1h0.9c0.9,0,1.4,0.4,1.4,1.3c0.1,0.9-0.3,1.6-1.2,1.9L98,61.3z"/>
<path class="st0" d="M98.2,76c-0.4,0.9-0.6,1.6-0.6,2.1c0,1,0.7,1.5,2.1,1.5c2,0,4-2.4,5-4.5l7.2-15.9c0.9-2.3,4.2-1.1,3.1,1.3
	l-7,15.4c-0.4,0.9-0.6,1.6-0.6,2.3c0,0.9,0.6,1.4,1.8,1.4c1.8,0,3.5-1.6,5.2-5c0.5-0.9,1.2-1.2,2.1-0.8c0.9,0.3,1.3,1,0.9,2
	c-0.7,1.7-1.8,3.3-3.3,4.8c-1.4,1.5-3.1,2.3-4.9,2.3c-2.3,0-3.8-0.8-4.7-2.2c-1.4,1.4-3,2.2-4.9,2.2c-3.5,0-5.5-1.7-5.5-4.8
	c0-0.8,0.3-2,0.9-3.5l7.1-15.4c1.1-2.3,4.2-1,3.1,1.4L98.2,76z"/>
<path class="st0" d="M125.8,79.8c-1.4,2.1-3,3.3-6.8,3.3c-0.4,0-0.8-0.1-1.1-0.4c-0.5-0.4-0.7-0.7-0.7-1.3c0-0.2,0-0.4,0.1-0.5
	c0.2-0.7,0.8-1.3,1.6-1.4c0.5,0,1.2-0.1,2.1-0.3c2.5-0.4,3-4,3-6.5c0-0.5,0-1.1,0-1.5c0-0.5-0.1-0.9-0.2-1.4
	c-0.2-0.8-0.5-1.7-0.9-2.7c-0.8-1.6-0.6-1.5-1.4,0c-0.6,1.1-1.3,2.7-2.2,4.7c-0.9,2.1-1.5,3.4-1.8,4.1c-1.1,2.3-4.1,1-3-1.3
	c0.8-1.6,2.1-4.3,6.9-15c1.1-2.4,3.7-1.4,3.3,1.2c0,0-0.1,0.5-0.1,1.2c-0.1,1.1,0.7,2.3,1.6,4.5c0.7,1.5,1,2.7,1.2,3.8
	c0,0,0,0,0,0.1C127.4,70.8,128.4,75.7,125.8,79.8z"/>
</svg>
